<?xml version="1.0" encoding="utf-8"?>
<!-- Generator: Adobe Illustrator 17.0.0, SVG Export Plug-In . SVG Version: 6.00 Build 0)  -->
<!DOCTYPE svg PUBLIC "-//W3C//DTD SVG 1.1//EN" "http://www.w3.org/Graphics/SVG/1.1/DTD/svg11.dtd">
<svg version="1.1" id="Camada_1" xmlns="http://www.w3.org/2000/svg" xmlns:xlink="http://www.w3.org/1999/xlink" x="0px" y="0px"
	 width="110px" height="25px" viewBox="0 0 110 25" enable-background="new 0 0 110 25" xml:space="preserve">
<g>
	<path fill="#FFFFFF" d="M15.688,9.292c0,0.771-0.09,1.509-0.27,2.214c-0.18,0.705-0.435,1.362-0.764,1.969
		c-0.33,0.607-0.729,1.159-1.195,1.656c-0.467,0.496-0.991,0.919-1.572,1.269c-0.582,0.35-1.211,0.62-1.891,0.812
		c-0.68,0.193-1.395,0.289-2.146,0.289c-0.94,0-1.785-0.165-2.533-0.494c-0.748-0.33-1.383-0.78-1.905-1.353
		c-0.523-0.571-0.923-1.244-1.2-2.018c-0.278-0.774-0.417-1.608-0.417-2.503c0-0.771,0.09-1.51,0.27-2.219s0.434-1.367,0.764-1.974
		c0.33-0.607,0.73-1.159,1.2-1.656C4.5,4.79,5.025,4.367,5.606,4.017c0.581-0.349,1.211-0.621,1.891-0.813
		c0.679-0.193,1.398-0.289,2.155-0.289c0.934,0,1.775,0.165,2.523,0.495c0.748,0.33,1.381,0.782,1.9,1.357
		c0.52,0.575,0.917,1.25,1.195,2.028S15.688,8.404,15.688,9.292z M12.415,9.371c0-0.588-0.07-1.122-0.21-1.602
		c-0.141-0.48-0.346-0.891-0.617-1.234c-0.271-0.343-0.603-0.607-0.994-0.793c-0.392-0.186-0.836-0.279-1.333-0.279
		c-0.653,0-1.238,0.136-1.754,0.407C6.991,6.14,6.552,6.52,6.189,7.01C5.827,7.5,5.549,8.089,5.356,8.778
		c-0.192,0.689-0.289,1.452-0.289,2.288c0,0.588,0.068,1.12,0.206,1.597c0.137,0.477,0.338,0.885,0.603,1.224
		c0.265,0.34,0.593,0.603,0.984,0.789c0.392,0.187,0.839,0.279,1.342,0.279c0.653,0,1.239-0.134,1.758-0.401
		c0.52-0.269,0.96-0.646,1.323-1.137c0.362-0.49,0.642-1.078,0.838-1.763C12.317,10.968,12.415,10.207,12.415,9.371z"/>
	<path fill="#FFFFFF" d="M32.009,17.346H29.54c-0.274,0-0.488-0.063-0.642-0.191c-0.153-0.127-0.259-0.295-0.318-0.505l-0.441-2.566
		H23.29l-1.058,2.566c-0.092,0.177-0.237,0.337-0.436,0.48s-0.426,0.216-0.681,0.216h-2.508l6.819-14.274h3.272L32.009,17.346z
		 M27.767,11.909l-0.696-4.076c-0.052-0.255-0.109-0.557-0.171-0.906c-0.062-0.349-0.123-0.727-0.181-1.131
		c-0.157,0.411-0.312,0.792-0.465,1.141c-0.153,0.35-0.286,0.655-0.397,0.916l-1.675,4.056H27.767z"/>
	<path fill="#FFFFFF" d="M38.817,14.877c0.359,0,0.671-0.028,0.936-0.084c0.265-0.055,0.492-0.125,0.681-0.21
		s0.349-0.178,0.48-0.279c0.13-0.102,0.248-0.194,0.353-0.279s0.203-0.155,0.294-0.211s0.189-0.083,0.294-0.083
		s0.191,0.018,0.26,0.054c0.068,0.036,0.119,0.077,0.152,0.123l1.117,1.342c-0.621,0.738-1.357,1.298-2.209,1.68
		c-0.853,0.383-1.821,0.573-2.905,0.573c-0.901,0-1.7-0.158-2.396-0.475c-0.695-0.317-1.282-0.753-1.758-1.309
		c-0.477-0.555-0.838-1.213-1.083-1.974c-0.245-0.761-0.368-1.582-0.368-2.464c0-0.816,0.091-1.59,0.274-2.322
		c0.183-0.731,0.441-1.407,0.774-2.028s0.733-1.179,1.2-1.675c0.467-0.496,0.984-0.917,1.553-1.264s1.179-0.612,1.832-0.798
		c0.653-0.187,1.335-0.279,2.047-0.279c0.536,0,1.024,0.051,1.465,0.152s0.839,0.242,1.195,0.421
		c0.356,0.18,0.674,0.394,0.955,0.642s0.525,0.522,0.735,0.823l-1.117,1.293c-0.078,0.091-0.17,0.173-0.274,0.245
		c-0.104,0.072-0.242,0.108-0.412,0.108c-0.111,0-0.212-0.026-0.304-0.079c-0.092-0.052-0.185-0.116-0.279-0.191
		s-0.201-0.158-0.318-0.25c-0.118-0.091-0.258-0.174-0.421-0.25s-0.357-0.139-0.583-0.191c-0.225-0.052-0.491-0.079-0.798-0.079
		c-0.601,0-1.161,0.127-1.68,0.382c-0.519,0.254-0.97,0.619-1.352,1.092c-0.382,0.474-0.681,1.048-0.896,1.724
		c-0.216,0.676-0.323,1.432-0.323,2.268c0,0.607,0.073,1.149,0.22,1.626c0.147,0.477,0.348,0.88,0.603,1.209
		c0.255,0.33,0.559,0.582,0.911,0.755S38.406,14.877,38.817,14.877z"/>
	<path fill="#FFFFFF" d="M50.75,3.072c0.875,0,1.622,0.093,2.239,0.279c0.617,0.186,1.122,0.442,1.514,0.769
		c0.392,0.327,0.677,0.713,0.857,1.161c0.18,0.448,0.27,0.933,0.27,1.455s-0.07,1.021-0.21,1.494
		c-0.141,0.474-0.345,0.908-0.612,1.303c-0.268,0.395-0.595,0.745-0.98,1.048s-0.826,0.553-1.322,0.75
		c0.196,0.111,0.375,0.247,0.539,0.406c0.163,0.16,0.3,0.354,0.412,0.583l2.077,5.026h-2.88c-0.268,0-0.492-0.054-0.671-0.162
		c-0.18-0.107-0.309-0.256-0.387-0.445l-1.548-4.223c-0.079-0.176-0.176-0.304-0.294-0.382c-0.118-0.079-0.294-0.118-0.529-0.118
		h-0.715l-0.657,5.33h-3.174l1.744-14.274H50.75z M49.946,9.812c0.457,0,0.846-0.07,1.166-0.211c0.32-0.14,0.58-0.328,0.779-0.563
		c0.199-0.235,0.343-0.51,0.431-0.823c0.088-0.313,0.132-0.643,0.132-0.989c0-0.268-0.039-0.511-0.117-0.73
		c-0.079-0.219-0.201-0.405-0.368-0.558c-0.167-0.154-0.375-0.273-0.627-0.358c-0.251-0.084-0.547-0.127-0.887-0.127h-1.136
		l-0.539,4.36H49.946z"/>
	<path fill="#FFFFFF" d="M61.38,5.531l-0.422,3.448h4.037l-0.313,2.371h-4.018l-0.44,3.537h5.319l-0.313,2.459h-8.522L58.47,3.072
		h8.504L66.66,5.531H61.38z"/>
	<path fill="#FFFFFF" d="M79.132,17.346h-2.47c-0.273,0-0.488-0.063-0.642-0.191c-0.153-0.127-0.259-0.295-0.318-0.505l-0.44-2.566
		h-4.85l-1.058,2.566c-0.092,0.177-0.237,0.337-0.437,0.48s-0.426,0.216-0.681,0.216h-2.508l6.818-14.274h3.272L79.132,17.346z
		 M74.89,11.909l-0.696-4.076c-0.052-0.255-0.109-0.557-0.171-0.906C73.96,6.578,73.899,6.2,73.841,5.795
		c-0.156,0.411-0.312,0.792-0.465,1.141c-0.153,0.35-0.286,0.655-0.397,0.916l-1.675,4.056H74.89z"/>
	<path fill="#FFFFFF" d="M93.611,3.072l-1.764,14.274h-1.666c-0.248,0-0.448-0.041-0.603-0.123
		c-0.153-0.081-0.299-0.217-0.436-0.406L84.157,8c-0.02,0.379-0.049,0.719-0.089,1.019l-0.979,8.327h-2.821l1.764-14.274h1.685
		c0.138,0,0.253,0.005,0.348,0.015s0.179,0.033,0.25,0.068c0.072,0.036,0.138,0.087,0.196,0.152c0.059,0.065,0.121,0.15,0.187,0.255
		l5.006,8.817c0.02-0.229,0.039-0.447,0.059-0.657c0.02-0.209,0.042-0.405,0.068-0.588l0.96-8.062H93.611z"/>
	<path fill="#FFFFFF" d="M108.424,9.292c0,0.771-0.09,1.509-0.27,2.214c-0.18,0.705-0.435,1.362-0.764,1.969
		c-0.33,0.607-0.729,1.159-1.195,1.656c-0.467,0.496-0.991,0.919-1.572,1.269c-0.582,0.35-1.212,0.62-1.891,0.812
		c-0.68,0.193-1.395,0.289-2.146,0.289c-0.94,0-1.785-0.165-2.533-0.494c-0.748-0.33-1.383-0.78-1.905-1.353
		c-0.522-0.571-0.923-1.244-1.2-2.018c-0.277-0.774-0.416-1.608-0.416-2.503c0-0.771,0.09-1.51,0.27-2.219s0.434-1.367,0.764-1.974
		s0.73-1.159,1.2-1.656c0.471-0.496,0.996-0.919,1.577-1.269c0.581-0.349,1.212-0.621,1.891-0.813
		c0.68-0.193,1.398-0.289,2.155-0.289c0.935,0,1.775,0.165,2.523,0.495c0.747,0.33,1.381,0.782,1.9,1.357s0.917,1.25,1.195,2.028
		C108.285,7.572,108.424,8.404,108.424,9.292z M105.151,9.371c0-0.588-0.069-1.122-0.21-1.602c-0.141-0.48-0.347-0.891-0.617-1.234
		c-0.271-0.343-0.603-0.607-0.994-0.793c-0.393-0.186-0.837-0.279-1.333-0.279c-0.653,0-1.237,0.136-1.754,0.407
		C99.728,6.14,99.288,6.52,98.926,7.01c-0.362,0.49-0.64,1.079-0.833,1.768c-0.192,0.689-0.288,1.452-0.288,2.288
		c0,0.588,0.068,1.12,0.205,1.597c0.138,0.477,0.338,0.885,0.603,1.224c0.265,0.34,0.593,0.603,0.984,0.789
		c0.393,0.187,0.84,0.279,1.343,0.279c0.652,0,1.239-0.134,1.758-0.401c0.52-0.269,0.961-0.646,1.323-1.137
		c0.362-0.49,0.642-1.078,0.838-1.763C105.054,10.968,105.151,10.207,105.151,9.371z"/>
</g>
<g>
	<path fill="#FFFFFF" d="M84.471,23.026c0-0.058,0.011-0.112,0.031-0.163c0.021-0.05,0.051-0.095,0.088-0.132
		c0.038-0.038,0.082-0.067,0.131-0.09c0.05-0.021,0.104-0.032,0.164-0.032c0.058,0,0.111,0.011,0.162,0.032
		c0.051,0.022,0.095,0.052,0.131,0.09c0.037,0.037,0.066,0.082,0.088,0.132c0.022,0.051,0.033,0.105,0.033,0.163
		c0,0.06-0.011,0.114-0.033,0.163c-0.021,0.05-0.051,0.094-0.088,0.132c-0.036,0.037-0.08,0.066-0.131,0.087
		c-0.051,0.021-0.104,0.031-0.162,0.031c-0.06,0-0.114-0.01-0.164-0.031c-0.049-0.021-0.093-0.05-0.131-0.087
		c-0.037-0.038-0.066-0.082-0.088-0.132C84.481,23.141,84.471,23.086,84.471,23.026z"/>
	<path fill="#FFFFFF" d="M87.919,23.135c-0.094,0.074-0.188,0.135-0.281,0.18c-0.095,0.046-0.192,0.078-0.295,0.098
		c-0.103,0.019-0.214,0.027-0.335,0.027c-0.177,0-0.334-0.03-0.471-0.091c-0.137-0.06-0.252-0.146-0.346-0.256
		c-0.093-0.11-0.164-0.242-0.214-0.397c-0.05-0.154-0.074-0.326-0.074-0.515c0-0.163,0.018-0.323,0.054-0.479
		c0.035-0.157,0.086-0.305,0.151-0.442s0.146-0.265,0.24-0.381c0.094-0.116,0.199-0.216,0.316-0.3
		c0.117-0.083,0.244-0.148,0.382-0.194c0.137-0.047,0.281-0.07,0.435-0.07c0.202,0,0.372,0.035,0.511,0.107
		c0.138,0.071,0.259,0.177,0.364,0.315l-0.202,0.244c-0.016,0.016-0.034,0.03-0.054,0.043s-0.042,0.02-0.065,0.02
		c-0.03,0-0.059-0.011-0.087-0.033c-0.027-0.021-0.062-0.046-0.101-0.072c-0.04-0.027-0.09-0.052-0.149-0.075
		c-0.06-0.022-0.136-0.034-0.229-0.034c-0.125,0-0.244,0.034-0.356,0.102s-0.21,0.161-0.295,0.281
		c-0.084,0.12-0.151,0.264-0.2,0.431c-0.05,0.167-0.075,0.349-0.075,0.545c0,0.234,0.053,0.418,0.156,0.551
		c0.104,0.133,0.252,0.199,0.442,0.199c0.123,0,0.226-0.018,0.307-0.054c0.082-0.035,0.15-0.074,0.207-0.116
		c0.057-0.041,0.105-0.08,0.147-0.116c0.042-0.035,0.085-0.053,0.131-0.053c0.042,0,0.081,0.02,0.116,0.06l0.161,0.196
		C88.109,22.967,88.013,23.061,87.919,23.135z"/>
	<path fill="#FFFFFF" d="M89.703,23.439c-0.167,0-0.321-0.027-0.462-0.084s-0.263-0.14-0.364-0.247
		c-0.103-0.108-0.183-0.241-0.24-0.399s-0.086-0.337-0.086-0.537c0-0.261,0.041-0.504,0.123-0.73
		c0.083-0.226,0.195-0.423,0.338-0.591c0.144-0.168,0.311-0.3,0.502-0.396c0.191-0.097,0.396-0.145,0.615-0.145
		c0.167,0,0.32,0.028,0.461,0.085c0.142,0.057,0.263,0.139,0.363,0.247c0.102,0.108,0.181,0.241,0.238,0.398
		c0.058,0.158,0.087,0.337,0.087,0.538c0,0.171-0.02,0.335-0.057,0.494c-0.038,0.159-0.091,0.308-0.158,0.445
		s-0.149,0.264-0.245,0.376c-0.097,0.113-0.203,0.21-0.319,0.291c-0.115,0.08-0.241,0.143-0.376,0.188
		C89.987,23.418,89.848,23.439,89.703,23.439z M89.76,22.939c0.133,0,0.254-0.037,0.363-0.111c0.108-0.074,0.202-0.174,0.278-0.3
		c0.076-0.125,0.136-0.27,0.177-0.433c0.042-0.164,0.062-0.335,0.062-0.514c0-0.263-0.048-0.456-0.145-0.582
		c-0.096-0.126-0.238-0.189-0.427-0.189c-0.135,0-0.257,0.037-0.365,0.11s-0.2,0.172-0.275,0.295s-0.134,0.267-0.176,0.432
		c-0.041,0.165-0.062,0.337-0.062,0.518C89.19,22.682,89.38,22.939,89.76,22.939z"/>
	<path fill="#FFFFFF" d="M91.647,23.396l0.366-3.044h0.321c0.069,0,0.123,0.018,0.159,0.053c0.037,0.034,0.056,0.089,0.056,0.162
		l-0.027,0.429c0.143-0.229,0.299-0.399,0.466-0.514c0.168-0.114,0.345-0.171,0.532-0.171c0.194,0,0.343,0.065,0.446,0.198
		c0.104,0.132,0.159,0.321,0.167,0.569c0.146-0.264,0.311-0.458,0.491-0.582s0.374-0.186,0.58-0.186c0.259,0,0.446,0.1,0.563,0.301
		c0.117,0.2,0.153,0.484,0.11,0.852l-0.229,1.933h-0.629l0.227-1.933c0.014-0.107,0.02-0.2,0.017-0.278
		c-0.003-0.079-0.015-0.144-0.036-0.193c-0.021-0.051-0.052-0.088-0.092-0.112c-0.041-0.023-0.094-0.035-0.159-0.035
		c-0.08,0-0.158,0.021-0.237,0.062c-0.078,0.041-0.153,0.102-0.225,0.182c-0.071,0.079-0.138,0.177-0.199,0.291
		c-0.062,0.115-0.116,0.247-0.164,0.394l-0.19,1.623h-0.629l0.229-1.933c0.014-0.107,0.021-0.2,0.019-0.278
		c-0.002-0.079-0.014-0.144-0.033-0.193c-0.02-0.051-0.05-0.088-0.089-0.112c-0.04-0.023-0.093-0.035-0.158-0.035
		c-0.088,0-0.171,0.021-0.25,0.066c-0.08,0.045-0.155,0.109-0.227,0.192s-0.138,0.185-0.199,0.305s-0.116,0.256-0.164,0.407
		l-0.188,1.581H91.647z"/>
	<path fill="#FFFFFF" d="M96.331,23.026c0-0.058,0.011-0.112,0.031-0.163c0.021-0.05,0.051-0.095,0.088-0.132
		c0.038-0.038,0.082-0.067,0.131-0.09c0.05-0.021,0.104-0.032,0.164-0.032c0.058,0,0.111,0.011,0.162,0.032
		c0.051,0.022,0.095,0.052,0.131,0.09c0.037,0.037,0.066,0.082,0.088,0.132c0.022,0.051,0.033,0.105,0.033,0.163
		c0,0.06-0.011,0.114-0.033,0.163c-0.021,0.05-0.051,0.094-0.088,0.132c-0.036,0.037-0.08,0.066-0.131,0.087
		c-0.051,0.021-0.104,0.031-0.162,0.031c-0.06,0-0.114-0.01-0.164-0.031c-0.049-0.021-0.093-0.05-0.131-0.087
		c-0.037-0.038-0.066-0.082-0.088-0.132C96.342,23.141,96.331,23.086,96.331,23.026z"/>
	<path fill="#FFFFFF" d="M98.669,21.034c0.073-0.109,0.151-0.209,0.235-0.298c0.083-0.09,0.17-0.166,0.262-0.229
		c0.091-0.063,0.186-0.112,0.284-0.146c0.099-0.034,0.199-0.051,0.303-0.051c0.127,0,0.241,0.023,0.344,0.069
		c0.102,0.047,0.188,0.117,0.261,0.212c0.071,0.095,0.126,0.211,0.165,0.352c0.038,0.14,0.058,0.303,0.058,0.489
		c0,0.169-0.018,0.336-0.052,0.501c-0.035,0.164-0.084,0.32-0.147,0.469c-0.063,0.147-0.141,0.285-0.23,0.412
		c-0.091,0.127-0.19,0.237-0.3,0.329c-0.109,0.093-0.228,0.165-0.354,0.218s-0.259,0.078-0.396,0.078
		c-0.157,0-0.299-0.032-0.425-0.098s-0.23-0.155-0.313-0.269l-0.033,0.141c-0.02,0.063-0.045,0.109-0.074,0.139
		c-0.03,0.028-0.081,0.043-0.152,0.043h-0.342l0.532-4.407h0.626L98.669,21.034z M98.463,22.701c0.071,0.09,0.155,0.152,0.252,0.189
		c0.096,0.037,0.192,0.055,0.287,0.055c0.096,0,0.185-0.02,0.269-0.06c0.083-0.039,0.16-0.094,0.23-0.163s0.133-0.151,0.188-0.246
		c0.055-0.094,0.102-0.195,0.14-0.302c0.039-0.107,0.068-0.22,0.088-0.335c0.021-0.116,0.03-0.231,0.03-0.345
		c0-0.224-0.039-0.393-0.116-0.504c-0.077-0.112-0.186-0.169-0.325-0.169c-0.087,0-0.176,0.029-0.268,0.087
		c-0.091,0.058-0.179,0.137-0.262,0.238c-0.084,0.101-0.161,0.221-0.234,0.36c-0.072,0.139-0.134,0.288-0.186,0.449L98.463,22.701z"
		/>
	<path fill="#FFFFFF" d="M101.811,21.142c0.077-0.161,0.161-0.299,0.251-0.414c0.091-0.115,0.185-0.206,0.283-0.271
		c0.098-0.065,0.199-0.104,0.304-0.116s0.209,0.005,0.314,0.051l-0.116,0.613c-0.253-0.101-0.474-0.068-0.663,0.097
		c-0.189,0.166-0.342,0.479-0.457,0.939l-0.161,1.355h-0.625l0.366-3.044h0.322c0.069,0,0.122,0.018,0.159,0.053
		c0.036,0.034,0.055,0.089,0.055,0.162L101.811,21.142z"/>
</g>
</svg>
