<?xml version="1.0" encoding="utf-8"?>
<!-- Generator: Adobe Illustrator 17.0.0, SVG Export Plug-In . SVG Version: 6.00 Build 0)  -->
<!DOCTYPE svg PUBLIC "-//W3C//DTD SVG 1.1//EN" "http://www.w3.org/Graphics/SVG/1.1/DTD/svg11.dtd">
<svg version="1.1" id="Camada_1" xmlns="http://www.w3.org/2000/svg" xmlns:xlink="http://www.w3.org/1999/xlink" x="0px" y="0px"
	 width="300px" height="70px" viewBox="0 0 300 70" enable-background="new 0 0 300 70" xml:space="preserve">
<g>
	<path fill="#FFFFFF" d="M28.333,49.018c5.045,0.442,9.943,1.445,14.472,3.83c0.578,0.304,1.218,0.528,1.646,1.069
		c-0.62,0.501-1.158,0.059-1.686-0.181c-1.159-0.527-2.261-1.176-3.554-1.595c0.708,1.423,1.254,2.849,0.451,4.388
		c-12.851,0-25.702,0-38.553,0C1.072,56.371,1.036,56.212,1,56.053c6.123-5.416,13.641-6.814,21.535-7.128
		c0.65,0.796-0.471,1.376-0.212,2.278c2.257-0.069,4.575-0.096,6.796,0.735C29.015,50.9,27.838,50.185,28.333,49.018z"/>
	<path fill="#FFFFFF" d="M28.333,49.018c0.245,1.214,1.062,2.171,1.591,3.508c-2.851-0.831-5.611-1.284-8.566-0.678
		c0.443-1.099,0.81-2.011,1.177-2.923c1.343-3.53,1.506-7.168,0.791-10.828c-0.254-1.304,0.11-1.694,1.322-1.571
		c0.598-0.488,1.259-0.724,2.033-0.513c0.867-0.296,1-0.119,0.719,0.797C26.118,40.985,26.465,45.067,28.333,49.018z"/>
	<path fill="#FFFFFF" d="M36.986,28.905c-0.549,1.465-1.901,1.744-3.168,1.998c-2.22,0.446-4.045,1.433-5.297,3.353
		c-0.452,0.693-1.239,0.896-1.842,1.365c-1.161,0.897-2.443,0.45-3.695,0.335c-0.784-2.588-1.678-5.134-2.855-7.635
		c2.428,1.095,4.029,2.951,4.973,5.655c2.211-2.368,2.327-5.235,2.632-8.039c0.111-0.225,0.163-0.551,0.543-0.321
		c0.784,3.373,3.255,4.807,6.728,3.904C35.569,29.002,36.122,28.453,36.986,28.905z"/>
	<path fill="#FFFFFF" d="M18.627,23.291c0.429,1.132,0.881,2.256,1.278,3.398c0.223,0.642-0.029,0.872-0.738,0.815
		c-3.565-0.285-7.38-3.975-7.855-7.567c-0.146-1.101,0.299-1.26,1.184-0.994c0.686,0.206,1.365,0.437,2.047,0.656
		C16.598,20.062,17.94,21.315,18.627,23.291z"/>
	<path fill="#FFFFFF" d="M26.704,24.804c0.058,1.821-0.467,3.481-1.326,5.071c-0.433,0.8-0.734,0.726-1.281,0.086
		c-2.378-2.786-2.604-7.641-0.505-10.721c0.517-0.759,0.852-0.903,1.399-0.055C26.099,20.901,26.767,22.738,26.704,24.804z"/>
	<path fill="#FFFFFF" d="M38.675,21.52c1.334-1.153,2.682-2.248,4.432-2.777c1.024-0.31,1.293-0.121,1.133,0.933
		c-0.61,4.016-2.854,6.717-6.544,8.289c-0.581,0.63-1.035,0.54-1.33-0.256c-0.155-0.419-0.123-0.868-0.121-1.307
		C36.57,24.535,36.926,22.68,38.675,21.52z"/>
	<path fill="#FFFFFF" d="M33.032,24.975c-0.056,1.012,0.01,3.144-1.087,3.323c-1.254,0.204-2.03-1.727-2.589-3.038
		c-0.863-2.025-0.804-4.075-0.019-6.133c0.404-1.06,0.795-1.356,1.615-0.309C32.295,20.531,33.089,22.412,33.032,24.975z"/>
	<path fill="#FFFFFF" d="M35.296,22.563c-0.075-2.977,0.629-5.616,3.275-7.377c0.438-0.292,0.91-0.862,1.458-0.533
		c0.529,0.318,0.292,1.016,0.281,1.544c-0.04,1.906-0.906,3.505-1.965,5.021C37.26,22.973,36.459,23.326,35.296,22.563z"/>
	<path fill="#FFFFFF" d="M14.974,19.274c-1.869-1.45-3.037-3.304-3.231-5.698c-0.043-0.537-0.208-1.214,0.245-1.563
		c0.539-0.415,0.97,0.237,1.437,0.454c0.294,0.137,0.579,0.292,0.868,0.439c1.974,1.039,3.612,4.631,3.052,6.636
		c-0.191,0.684-0.547,0.921-1.209,0.627C15.679,19.966,15.268,19.695,14.974,19.274z"/>
	<path fill="#FFFFFF" d="M24.708,14.56c-0.321,1.177-0.76,2.292-1.448,3.321c-0.685,1.024-1.266,1.263-1.885-0.016
		c-1.439-2.405-0.787-6.389,1.317-8.066c0.582-0.464,1.162-0.666,1.767-0.041c0.119,0.158,0.207,0.331,0.268,0.518
		C25.063,11.705,25.504,13.136,24.708,14.56z"/>
	<path fill="#FFFFFF" d="M21.042,17.884c0.3,1.69,0.967,3.353,0.316,5.107c-0.187,0.503-0.169,1.24-0.671,1.414
		c-0.58,0.201-0.847-0.534-1.23-0.884c-0.201-0.184-0.364-0.409-0.544-0.615c-1.93-2.049-2.093-5.17-0.403-7.715
		C19.966,15.134,20.667,15.88,21.042,17.884z"/>
	<path fill="#FFFFFF" d="M35.663,15.544c-0.094,1.956-0.392,3.846-1.714,5.414c-2.283-1.481-2.816-6.469-0.547-9.087
		c0.368-0.425,0.633-0.293,0.948,0.002C35.597,12.807,35.874,14.088,35.663,15.544z"/>
	<path fill="#FFFFFF" d="M26.045,10.896c2.65,1.355,3.979,6.568,2.331,8.961c-0.483,0.7-0.74,0.17-1.011-0.084
		c-1.129-1.061-1.763-2.401-2.1-3.896c-0.113-1.098-0.379-2.186-0.193-3.302C25.185,11.891,25.464,11.307,26.045,10.896z"/>
	<path fill="#ECEDEF" d="M39.661,56.529c0.065-1.661,0.002-3.294-1.307-4.861c2.449,0.128,4.03,1.87,6.096,2.248
		c1.146,0.553,2.091,1.343,3.103,2.613C44.742,56.529,42.202,56.529,39.661,56.529z"/>
	<path fill="#FFFFFF" d="M30.554,16.064c-1.76-2.211-1.688-4.605,0.202-6.672C32.438,11.519,32.362,14.027,30.554,16.064z"/>
	<path fill="#FFFFFF" d="M19.512,11.921c0.165,0.515,0.355,1.023,0.489,1.545c0.334,1.298-0.053,1.76-1.344,1.114
		c-1.372-0.917-2.142-2.253-2.633-3.782c-0.097-0.974,0.099-1.643,1.308-1.263c0.546-0.213,0.812,0.233,1.16,0.489
		C18.963,10.584,19.577,11.071,19.512,11.921z"/>
	<path fill="#FFFFFF" d="M43.591,8.267c0.253,2.568-0.999,4.452-3.659,5.51C39.328,11.253,40.877,8.922,43.591,8.267z"/>
	<path fill="#FFFFFF" d="M41.469,18.177c-0.636-3.017,0.158-4.842,2.61-6.184C44.952,14.453,44.019,16.729,41.469,18.177z"/>
	<path fill="#FFFFFF" d="M21.623,6.295c0.347,1.673,0.499,3.338-0.491,4.861c-0.246,0.379-0.346,1.175-1.157,0.725
		c-0.756-0.608-0.99-1.447-1.049-2.365c0.021-0.371,0.088-0.725,0.384-0.988c0.05-0.839,0.404-1.566,0.806-2.286
		C20.672,5.248,21.153,5.375,21.623,6.295z"/>
	<path fill="#FFFFFF" d="M34.696,11.871c-0.314-2.108-0.108-4.055,1.616-5.587c0.749-0.665,1.056-0.49,1.238,0.444
		c0.331,1.707-0.495,3.071-1.218,4.475C35.96,11.852,35.734,12.856,34.696,11.871z"/>
	<path fill="#FFFFFF" d="M34.693,28.868c-1.19-1.75-1.577-3.613-0.67-5.594c0.171-0.373,0.203-1.268,1.078-0.727
		c0.863,0.639,1.295,1.493,1.284,2.57c-0.108,0.869,0.107,1.769-0.175,2.612C35.979,28.42,35.804,29.3,34.693,28.868z"/>
	<path fill="#FFFFFF" d="M36.722,11.225c0.745-0.329,1.12-1.197,1.981-1.358c0.068,0.002,0.137,0.004,0.205,0.005
		c0.621,2.182-0.044,3.995-1.653,5.486c-0.31,0.287-0.728,1.053-1.287,0.194C35.469,13.98,35.355,12.473,36.722,11.225z"/>
	<path fill="#FFFFFF" d="M24.327,10.024c-0.244-1.376-0.732-2.729-0.398-4.16c0.249-0.534,0.497-1.068,0.806-1.732
		c0.76,0.55,1.174,1.162,1.298,1.98c0.252,0.193,0.113,0.525,0.269,0.752c0.345,1.409-0.024,2.726-0.517,4.027
		c-0.818,0.267-1.124-0.331-1.466-0.868L24.327,10.024z"/>
	<path fill="#FFFFFF" d="M28.863,5.7c1.175,1.846,1.162,3.696,0.144,5.583c-0.401,0.743-0.785,0.865-1.23,0.01
		C26.976,9.754,27.082,6.859,28.863,5.7z"/>
	<path fill="#FFFFFF" d="M32.17,4.817c1.58,1.49,2.131,3.065,1.668,4.954c-0.069,0.281-0.024,0.726-0.458,0.784
		c-0.382,0.051-0.583-0.285-0.78-0.536C31.378,8.463,31.308,6.788,32.17,4.817z"/>
	<path fill="#FFFFFF" d="M19.311,8.527c0,0.336,0.001,0.672,0.001,1.008c-0.302,0.309-0.354,1.021-1.069,0.663
		c-0.304-0.221-0.607-0.443-0.911-0.664c-0.951-2.814-0.951-2.814-0.518-4.245C18.455,5.745,18.343,7.552,19.311,8.527z"/>
	<path fill="#FFFFFF" d="M23.655,5.864c-0.239,0.404-0.479,0.808-0.729,1.23c-0.744-0.149-0.795-0.908-1.227-1.304
		C21.653,4.479,21.484,3.143,22.525,2C23.832,3.021,23.657,4.469,23.655,5.864z"/>
	<path fill="#FFFFFF" d="M15.735,11.538c0.351,1.858,0.351,1.858-1.402,1.322c-0.715-1.18-1.846-2.225-1.273-3.901
		C14.444,9.36,15.153,10.381,15.735,11.538z"/>
	<path fill="#F8FAF3" d="M36.074,24.9c-0.324-0.784-0.648-1.569-0.972-2.353c0.066-0.008,0.13-0.002,0.194,0.016
		c1.54,0.739,2-0.971,3.049-1.345c0.11,0.101,0.22,0.201,0.331,0.302c-0.918,1.46-1.795,2.938-2.062,4.685
		C35.731,26.061,36.457,25.251,36.074,24.9z"/>
	<path fill="#FFFFFF" d="M34.607,7.271c-0.763-1.764-0.504-3.055,0.858-4.321C36.24,4.659,35.931,5.936,34.607,7.271z"/>
	<path fill="#FFFFFF" d="M26.302,6.864c-0.278-0.183-0.305-0.457-0.269-0.752c0.549-1.059-0.007-2.619,1.476-3.254
		C28.471,4.625,27.953,6.344,26.302,6.864z"/>
	<path fill="#FFFFFF" d="M30.635,7.186c-1.371-1.243-1.567-2.57-0.864-4.095C31.194,4.006,31.435,5.027,30.635,7.186z"/>
	<path fill="#FFFFFF" d="M38.908,9.873l-0.103,0.013l-0.102-0.018c-0.421-1.845,0.283-2.883,2.522-3.597
		c0.1,1.203-0.55,1.945-1.367,2.629C39.513,9.188,38.801,9.141,38.908,9.873z"/>
	<path fill="#FFFFFF" d="M24.319,10.023c0.608,0.087,0.78,0.912,1.466,0.868c0.087-0.038,0.174-0.037,0.26,0.005
		c-0.608,1.606-0.936,3.255-0.781,4.981c-0.185-0.439-0.371-0.878-0.556-1.316C24.838,13.026,24.525,11.529,24.319,10.023z"/>
	<path fill="#FFFFFF" d="M36.722,11.225c-0.512,1.397-0.958,2.806-0.755,4.328c-0.101,0.002-0.202-0.001-0.303-0.01
		c-0.351-1.254-0.704-2.508-1.313-3.67c0.115-0.001,0.231-0.001,0.346-0.002c0.887,0.614,1.049-0.546,1.635-0.668
		C36.461,11.211,36.592,11.218,36.722,11.225z"/>
	<path fill="#ECE4DB" d="M22.985,35.956c1.26,0.202,2.469-0.163,3.695-0.335c0.001,0.13,0.002,0.261,0.003,0.391
		c-0.632,0.351-1.289,0.605-2.033,0.513C24.213,35.989,23.382,36.606,22.985,35.956z"/>
	<path fill="#FFFFFF" d="M22.58,34.598c0,0,1.739,6.567,0.44,12.872h4.662c0,0-2.857-10.559,2.549-15.051L22.58,34.598z"/>
	<path fill="#F7F3EF" d="M25.012,44.215c0.063-0.285,0.181-0.662,0.49-0.668c0.215-0.004,0.408,0.361,0.434,0.655
		c0.023,0.268-0.121,0.457-0.394,0.485C25.231,44.72,25.06,44.549,25.012,44.215z"/>
	<g>
		<g>
			<path fill="#FFFFFF" d="M25.488,38.969c0,0,0.08,0.271,0.14,0.678c0.059,0.407,0.113,0.949,0.11,1.491
				c0.003,0.542-0.049,1.085-0.109,1.491c-0.06,0.407-0.141,0.678-0.141,0.678s-0.08-0.271-0.141-0.678
				c-0.06-0.407-0.112-0.949-0.109-1.491c-0.003-0.542,0.051-1.085,0.11-1.491C25.409,39.24,25.488,38.969,25.488,38.969z"/>
		</g>
		<g>
			<path fill="#FFFFFF" d="M25.488,39.762c0,0,0.012-0.034,0.034-0.094c0.034-0.046,0.038-0.161,0.122-0.211
				c0.143-0.127,0.334-0.296,0.525-0.465c0.191-0.169,0.382-0.338,0.525-0.465c0.061-0.075,0.177-0.065,0.227-0.092
				c0.06-0.016,0.094-0.026,0.094-0.026s-0.014,0.033-0.037,0.09c-0.033,0.047-0.037,0.163-0.119,0.215
				c-0.143,0.127-0.334,0.296-0.525,0.465s-0.382,0.338-0.525,0.465c-0.059,0.077-0.174,0.067-0.224,0.095
				C25.524,39.754,25.488,39.762,25.488,39.762z"/>
		</g>
		<g>
			<path fill="#FFFFFF" d="M25.488,40.106c0,0-0.035-0.01-0.097-0.026c-0.049-0.03-0.165-0.025-0.222-0.105
				c-0.14-0.133-0.326-0.311-0.512-0.488s-0.373-0.355-0.512-0.488c-0.081-0.055-0.081-0.172-0.112-0.22
				c-0.022-0.059-0.034-0.092-0.034-0.092s0.034,0.011,0.094,0.03c0.05,0.029,0.166,0.024,0.225,0.102
				c0.14,0.133,0.326,0.311,0.512,0.488s0.373,0.355,0.512,0.488c0.083,0.053,0.083,0.169,0.116,0.217
				C25.477,40.072,25.488,40.106,25.488,40.106z"/>
		</g>
		<g>
			<path fill="#FFFFFF" d="M25.488,40.233c0,0,0.012-0.034,0.034-0.094c0.034-0.046,0.038-0.162,0.122-0.213
				c0.143-0.128,0.334-0.3,0.525-0.471s0.382-0.343,0.525-0.471c0.061-0.076,0.177-0.067,0.228-0.094
				c0.06-0.017,0.094-0.027,0.094-0.027s-0.013,0.033-0.037,0.091c-0.033,0.047-0.036,0.164-0.118,0.216
				c-0.143,0.128-0.334,0.3-0.525,0.471c-0.191,0.171-0.382,0.343-0.525,0.471c-0.059,0.078-0.175,0.069-0.225,0.098
				C25.524,40.225,25.488,40.233,25.488,40.233z"/>
		</g>
		<g>
			<path fill="#FFFFFF" d="M25.488,40.563c0,0-0.035-0.008-0.096-0.022c-0.049-0.028-0.163-0.018-0.221-0.095
				c-0.14-0.126-0.326-0.294-0.512-0.462c-0.186-0.168-0.373-0.336-0.512-0.462c-0.08-0.051-0.082-0.167-0.114-0.213
				c-0.022-0.057-0.035-0.09-0.035-0.09s0.034,0.009,0.093,0.026c0.05,0.027,0.164,0.017,0.224,0.091
				c0.14,0.126,0.326,0.294,0.512,0.462c0.186,0.168,0.373,0.336,0.512,0.462c0.082,0.049,0.085,0.164,0.117,0.21
				C25.477,40.529,25.488,40.563,25.488,40.563z"/>
		</g>
		<g>
			<path fill="#FFFFFF" d="M25.488,41.172c0,0,0.013-0.033,0.035-0.092c0.034-0.044,0.04-0.158,0.123-0.204
				c0.143-0.12,0.334-0.28,0.525-0.44s0.382-0.32,0.525-0.44c0.062-0.072,0.175-0.058,0.226-0.082
				c0.059-0.014,0.093-0.022,0.093-0.022s-0.014,0.032-0.038,0.088c-0.033,0.045-0.039,0.16-0.12,0.208
				c-0.143,0.12-0.334,0.28-0.525,0.44c-0.191,0.16-0.382,0.32-0.525,0.44c-0.06,0.074-0.173,0.06-0.223,0.086
				C25.524,41.165,25.488,41.172,25.488,41.172z"/>
		</g>
		<g>
			<path fill="#FFFFFF" d="M25.488,40.969c0,0-0.035-0.01-0.097-0.026c-0.049-0.03-0.165-0.025-0.222-0.105
				c-0.14-0.133-0.326-0.311-0.512-0.488s-0.373-0.355-0.512-0.488c-0.081-0.055-0.081-0.172-0.112-0.22
				c-0.022-0.059-0.034-0.092-0.034-0.092s0.034,0.011,0.094,0.03c0.05,0.029,0.166,0.024,0.225,0.102
				c0.14,0.133,0.326,0.311,0.512,0.488s0.373,0.355,0.512,0.488c0.083,0.053,0.083,0.169,0.116,0.217
				C25.477,40.934,25.488,40.969,25.488,40.969z"/>
		</g>
		<g>
			<path fill="#FFFFFF" d="M25.488,41.502c0,0-0.035-0.009-0.097-0.025c-0.049-0.029-0.164-0.023-0.222-0.102
				c-0.14-0.131-0.326-0.305-0.512-0.48s-0.373-0.349-0.512-0.48c-0.081-0.054-0.081-0.17-0.113-0.218
				c-0.022-0.058-0.035-0.091-0.035-0.091s0.034,0.01,0.093,0.029c0.05,0.028,0.166,0.021,0.225,0.098
				c0.14,0.131,0.326,0.305,0.512,0.48c0.186,0.174,0.373,0.349,0.512,0.48c0.082,0.052,0.084,0.167,0.116,0.214
				C25.477,41.467,25.488,41.502,25.488,41.502z"/>
		</g>
		<g>
			<path fill="#FFFFFF" d="M25.488,41.705c0,0,0.012-0.035,0.033-0.097c0.033-0.048,0.036-0.166,0.12-0.22
				c0.143-0.136,0.334-0.316,0.525-0.497s0.382-0.362,0.525-0.497c0.061-0.079,0.178-0.074,0.229-0.104
				c0.061-0.02,0.095-0.031,0.095-0.031s-0.013,0.034-0.036,0.093c-0.033,0.049-0.034,0.167-0.117,0.223
				c-0.143,0.136-0.334,0.316-0.525,0.497s-0.382,0.362-0.525,0.497c-0.059,0.081-0.176,0.077-0.226,0.108
				C25.524,41.695,25.488,41.705,25.488,41.705z"/>
		</g>
		<g>
			<path fill="#FFFFFF" d="M25.488,42.276c0,0,0.012-0.036,0.032-0.098c0.033-0.049,0.035-0.167,0.12-0.222
				c0.143-0.138,0.334-0.322,0.525-0.506s0.382-0.368,0.525-0.506c0.061-0.08,0.179-0.077,0.23-0.108
				c0.061-0.021,0.095-0.032,0.095-0.032s-0.013,0.034-0.036,0.094c-0.032,0.05-0.034,0.168-0.116,0.226
				c-0.143,0.138-0.334,0.322-0.525,0.506s-0.382,0.368-0.525,0.506c-0.059,0.082-0.176,0.08-0.227,0.111
				C25.524,42.265,25.488,42.276,25.488,42.276z"/>
		</g>
		<g>
			<path fill="#FFFFFF" d="M25.488,42.567c0,0-0.035-0.009-0.097-0.025c-0.049-0.029-0.164-0.023-0.222-0.102
				c-0.14-0.131-0.326-0.305-0.512-0.48c-0.186-0.174-0.373-0.349-0.512-0.48c-0.081-0.054-0.081-0.17-0.113-0.218
				c-0.022-0.058-0.035-0.091-0.035-0.091s0.034,0.01,0.093,0.029c0.05,0.028,0.166,0.021,0.225,0.098
				c0.14,0.131,0.326,0.305,0.512,0.48c0.186,0.174,0.373,0.349,0.512,0.48c0.082,0.052,0.084,0.167,0.116,0.214
				C25.477,42.533,25.488,42.567,25.488,42.567z"/>
		</g>
		<g>
			<path fill="#FFFFFF" d="M25.488,40.742c0,0,0.013-0.033,0.035-0.092c0.034-0.044,0.04-0.158,0.123-0.204
				c0.143-0.12,0.334-0.28,0.525-0.44c0.191-0.16,0.382-0.32,0.525-0.44c0.062-0.072,0.175-0.058,0.226-0.082
				c0.059-0.014,0.093-0.022,0.093-0.022s-0.014,0.032-0.038,0.088c-0.033,0.045-0.039,0.16-0.12,0.208
				c-0.143,0.12-0.334,0.28-0.525,0.44s-0.382,0.32-0.525,0.44c-0.06,0.074-0.173,0.06-0.223,0.086
				C25.524,40.736,25.488,40.742,25.488,40.742z"/>
		</g>
		<g>
			<path fill="#FFFFFF" d="M25.488,42.085c0,0-0.035-0.009-0.097-0.025c-0.049-0.029-0.164-0.023-0.222-0.102
				c-0.14-0.131-0.326-0.305-0.512-0.48c-0.186-0.174-0.373-0.349-0.512-0.48c-0.081-0.054-0.081-0.17-0.113-0.218
				c-0.022-0.058-0.035-0.091-0.035-0.091s0.034,0.01,0.093,0.029c0.05,0.028,0.166,0.021,0.225,0.098
				c0.14,0.131,0.326,0.305,0.512,0.48s0.373,0.349,0.512,0.48c0.082,0.052,0.084,0.167,0.116,0.214
				C25.477,42.051,25.488,42.085,25.488,42.085z"/>
		</g>
	</g>
</g>
<g>
	<path fill="#FFFFFF" d="M78.729,31.292c0,1.818-0.212,3.56-0.635,5.224c-0.424,1.664-1.025,3.213-1.803,4.646
		c-0.778,1.433-1.718,2.735-2.82,3.906c-1.102,1.171-2.338,2.169-3.71,2.993s-2.858,1.464-4.461,1.918
		c-1.603,0.455-3.291,0.683-5.062,0.683c-2.219,0-4.21-0.39-5.975-1.168c-1.765-0.777-3.263-1.841-4.496-3.189
		c-1.233-1.349-2.177-2.936-2.832-4.762c-0.655-1.826-0.982-3.794-0.982-5.906c0-1.818,0.211-3.563,0.636-5.236
		c0.423-1.672,1.024-3.225,1.803-4.658s1.722-2.735,2.832-3.906c1.11-1.171,2.35-2.169,3.722-2.993
		c1.371-0.824,2.858-1.464,4.461-1.919c1.603-0.454,3.297-0.682,5.085-0.682c2.203,0,4.187,0.389,5.952,1.167
		s3.259,1.845,4.484,3.201s2.165,2.951,2.82,4.785C78.402,27.232,78.729,29.197,78.729,31.292z M71.009,31.477
		c0-1.387-0.166-2.646-0.497-3.779c-0.332-1.132-0.817-2.104-1.456-2.912c-0.64-0.809-1.421-1.433-2.346-1.873
		c-0.924-0.439-1.973-0.659-3.144-0.659c-1.541,0-2.92,0.32-4.137,0.959c-1.218,0.64-2.254,1.537-3.109,2.693
		c-0.855,1.156-1.51,2.546-1.964,4.172c-0.455,1.626-0.682,3.425-0.682,5.397c0,1.387,0.162,2.643,0.485,3.768
		c0.324,1.125,0.797,2.088,1.422,2.89c0.624,0.801,1.398,1.421,2.323,1.86c0.925,0.439,1.98,0.659,3.167,0.659
		c1.541,0,2.924-0.316,4.149-0.948s2.265-1.525,3.121-2.681c0.855-1.156,1.514-2.543,1.976-4.161
		C70.778,35.245,71.009,33.45,71.009,31.477z"/>
	<path fill="#FFFFFF" d="M117.237,50.293h-5.825c-0.647,0-1.152-0.15-1.514-0.451c-0.362-0.3-0.613-0.696-0.751-1.19l-1.04-6.056
		H96.665l-2.496,6.056c-0.216,0.417-0.559,0.794-1.029,1.133c-0.47,0.34-1.005,0.509-1.606,0.509h-5.917l16.088-33.679h7.72
		L117.237,50.293z M107.229,37.464l-1.641-9.616c-0.124-0.601-0.258-1.313-0.404-2.138c-0.147-0.824-0.289-1.714-0.428-2.669
		c-0.37,0.971-0.736,1.869-1.098,2.693c-0.362,0.824-0.674,1.545-0.936,2.161l-3.953,9.569H107.229z"/>
	<path fill="#FFFFFF" d="M133.302,44.468c0.847,0,1.583-0.065,2.208-0.196c0.624-0.131,1.159-0.297,1.606-0.497
		c0.447-0.2,0.824-0.42,1.132-0.658c0.308-0.239,0.585-0.459,0.832-0.659s0.478-0.366,0.694-0.497
		c0.215-0.131,0.447-0.196,0.693-0.196c0.246,0,0.451,0.043,0.612,0.127c0.162,0.085,0.281,0.182,0.358,0.289l2.635,3.167
		c-1.464,1.741-3.202,3.062-5.212,3.964c-2.011,0.901-4.296,1.353-6.854,1.353c-2.126,0-4.01-0.374-5.652-1.121
		c-1.641-0.747-3.024-1.776-4.149-3.086c-1.125-1.31-1.976-2.862-2.554-4.658c-0.578-1.795-0.867-3.732-0.867-5.813
		c0-1.926,0.216-3.752,0.647-5.479c0.431-1.726,1.04-3.321,1.826-4.785c0.786-1.464,1.73-2.781,2.832-3.953
		c1.102-1.171,2.323-2.165,3.664-2.982c1.341-0.816,2.782-1.444,4.323-1.884c1.541-0.439,3.151-0.659,4.831-0.659
		c1.263,0,2.416,0.12,3.456,0.358s1.98,0.57,2.82,0.994c0.84,0.424,1.591,0.929,2.254,1.514c0.662,0.586,1.24,1.233,1.733,1.941
		l-2.635,3.051c-0.185,0.216-0.401,0.409-0.647,0.578c-0.247,0.169-0.57,0.254-0.971,0.254c-0.262,0-0.501-0.061-0.717-0.185
		s-0.436-0.273-0.659-0.451c-0.224-0.177-0.474-0.374-0.751-0.59c-0.278-0.215-0.609-0.412-0.994-0.589
		c-0.385-0.177-0.844-0.327-1.375-0.451c-0.531-0.123-1.16-0.185-1.884-0.185c-1.418,0-2.739,0.301-3.964,0.902
		c-1.225,0.601-2.289,1.46-3.19,2.577s-1.606,2.473-2.115,4.068c-0.508,1.595-0.763,3.378-0.763,5.351
		c0,1.434,0.173,2.713,0.52,3.837c0.347,1.125,0.821,2.077,1.422,2.855c0.601,0.778,1.317,1.371,2.149,1.779
		S132.332,44.468,133.302,44.468z"/>
	<path fill="#FFFFFF" d="M161.455,16.614c2.065,0,3.825,0.22,5.282,0.659c1.456,0.439,2.646,1.044,3.571,1.814
		c0.924,0.771,1.598,1.684,2.022,2.739c0.423,1.056,0.636,2.2,0.636,3.433c0,1.233-0.166,2.408-0.497,3.525
		c-0.332,1.118-0.813,2.142-1.445,3.074c-0.632,0.933-1.402,1.757-2.312,2.474c-0.909,0.716-1.949,1.306-3.12,1.769
		c0.462,0.262,0.886,0.582,1.271,0.959c0.385,0.378,0.708,0.836,0.971,1.376l4.9,11.857h-6.796c-0.632,0-1.159-0.127-1.583-0.382
		c-0.424-0.254-0.729-0.604-0.913-1.052l-3.652-9.962c-0.185-0.416-0.416-0.717-0.693-0.901s-0.693-0.277-1.248-0.277h-1.688
		l-1.549,12.574h-7.489l4.114-33.679H161.455z M159.56,32.517c1.079,0,1.996-0.165,2.751-0.497s1.367-0.774,1.838-1.329
		c0.47-0.555,0.809-1.202,1.017-1.942s0.312-1.518,0.312-2.334c0-0.632-0.093-1.206-0.277-1.722
		c-0.186-0.516-0.475-0.955-0.867-1.317c-0.393-0.362-0.887-0.643-1.479-0.844c-0.593-0.2-1.291-0.3-2.092-0.3h-2.682l-1.271,10.286
		H159.56z"/>
	<path fill="#FFFFFF" d="M186.534,22.416l-0.993,8.137h9.522l-0.739,5.594h-9.477l-1.041,8.345h12.552l-0.739,5.802h-20.11
		l4.161-33.679h20.063l-0.74,5.802H186.534z"/>
	<path fill="#FFFFFF" d="M228.418,50.293h-5.824c-0.647,0-1.152-0.15-1.515-0.451c-0.361-0.3-0.612-0.696-0.751-1.19l-1.04-6.056
		h-11.441l-2.497,6.056c-0.216,0.417-0.559,0.794-1.028,1.133c-0.47,0.34-1.005,0.509-1.606,0.509h-5.917l16.088-33.679h7.72
		L228.418,50.293z M218.41,37.464l-1.642-9.616c-0.123-0.601-0.258-1.313-0.404-2.138c-0.146-0.824-0.289-1.714-0.428-2.669
		c-0.37,0.971-0.736,1.869-1.098,2.693c-0.362,0.824-0.675,1.545-0.937,2.161l-3.952,9.569H218.41z"/>
	<path fill="#FFFFFF" d="M262.581,16.614l-4.161,33.679h-3.929c-0.586,0-1.061-0.096-1.422-0.289
		c-0.362-0.192-0.705-0.512-1.028-0.959l-11.766-20.804c-0.046,0.894-0.115,1.695-0.208,2.404l-2.312,19.648h-6.657l4.161-33.679
		h3.976c0.323,0,0.597,0.012,0.82,0.035c0.224,0.023,0.42,0.078,0.59,0.162c0.169,0.085,0.323,0.204,0.462,0.358
		c0.139,0.154,0.285,0.354,0.439,0.601l11.812,20.804c0.046-0.54,0.092-1.056,0.139-1.549c0.046-0.493,0.1-0.955,0.161-1.387
		l2.266-19.024H262.581z"/>
	<path fill="#FFFFFF" d="M297.53,31.292c0,1.818-0.212,3.56-0.636,5.224c-0.424,1.664-1.025,3.213-1.803,4.646
		c-0.778,1.433-1.719,2.735-2.82,3.906s-2.339,2.169-3.71,2.993c-1.372,0.824-2.858,1.464-4.461,1.918
		c-1.604,0.455-3.29,0.683-5.062,0.683c-2.219,0-4.211-0.39-5.975-1.168c-1.765-0.777-3.264-1.841-4.496-3.189
		c-1.233-1.349-2.177-2.936-2.832-4.762c-0.654-1.826-0.981-3.794-0.981-5.906c0-1.818,0.211-3.563,0.635-5.236
		c0.424-1.672,1.025-3.225,1.804-4.658c0.777-1.433,1.722-2.735,2.831-3.906c1.109-1.171,2.35-2.169,3.722-2.993
		c1.371-0.824,2.858-1.464,4.461-1.919c1.603-0.454,3.298-0.682,5.085-0.682c2.204,0,4.188,0.389,5.952,1.167
		s3.26,1.845,4.484,3.201c1.226,1.356,2.165,2.951,2.82,4.785C297.202,27.232,297.53,29.197,297.53,31.292z M289.81,31.477
		c0-1.387-0.166-2.646-0.497-3.779c-0.331-1.132-0.816-2.104-1.456-2.912c-0.64-0.809-1.422-1.433-2.346-1.873
		c-0.925-0.439-1.973-0.659-3.144-0.659c-1.541,0-2.921,0.32-4.138,0.959c-1.218,0.64-2.254,1.537-3.109,2.693
		s-1.51,2.546-1.965,4.172c-0.454,1.626-0.682,3.425-0.682,5.397c0,1.387,0.162,2.643,0.485,3.768
		c0.324,1.125,0.798,2.088,1.422,2.89c0.624,0.801,1.398,1.421,2.323,1.86c0.924,0.439,1.979,0.659,3.166,0.659
		c1.541,0,2.924-0.316,4.149-0.948c1.225-0.632,2.266-1.525,3.12-2.681c0.855-1.156,1.515-2.543,1.977-4.161
		C289.578,35.245,289.81,33.45,289.81,31.477z"/>
</g>
<g>
	<path fill="#FFFFFF" d="M241.017,63.697c0-0.136,0.024-0.264,0.074-0.383c0.049-0.119,0.118-0.224,0.207-0.312
		s0.191-0.159,0.309-0.211s0.246-0.077,0.387-0.077c0.136,0,0.264,0.025,0.383,0.077s0.223,0.122,0.31,0.211
		c0.086,0.089,0.155,0.193,0.207,0.312s0.077,0.247,0.077,0.383c0,0.141-0.025,0.27-0.077,0.387s-0.121,0.22-0.207,0.309
		c-0.087,0.089-0.19,0.158-0.31,0.207c-0.119,0.05-0.247,0.074-0.383,0.074c-0.141,0-0.27-0.024-0.387-0.074
		c-0.117-0.049-0.22-0.118-0.309-0.207s-0.158-0.191-0.207-0.309C241.041,63.967,241.017,63.838,241.017,63.697z"/>
	<path fill="#FFFFFF" d="M249.152,63.954c-0.22,0.175-0.441,0.316-0.664,0.425c-0.223,0.107-0.454,0.184-0.695,0.229
		c-0.241,0.044-0.505,0.066-0.79,0.066c-0.417,0-0.787-0.071-1.11-0.215c-0.323-0.143-0.595-0.344-0.814-0.604
		c-0.221-0.26-0.39-0.573-0.506-0.938c-0.117-0.365-0.176-0.771-0.176-1.215c0-0.384,0.042-0.762,0.126-1.131
		c0.085-0.37,0.204-0.718,0.358-1.044c0.154-0.325,0.343-0.625,0.565-0.899c0.223-0.273,0.472-0.509,0.748-0.706
		c0.276-0.196,0.576-0.35,0.899-0.46s0.665-0.165,1.026-0.165c0.478,0,0.879,0.084,1.204,0.253c0.326,0.169,0.612,0.417,0.861,0.745
		l-0.478,0.576c-0.038,0.037-0.08,0.071-0.127,0.102s-0.099,0.046-0.154,0.046c-0.07,0-0.139-0.026-0.204-0.078
		c-0.065-0.051-0.146-0.108-0.238-0.172c-0.094-0.063-0.211-0.121-0.352-0.176c-0.141-0.054-0.321-0.08-0.541-0.08
		c-0.295,0-0.575,0.079-0.84,0.238s-0.496,0.381-0.695,0.664s-0.357,0.622-0.475,1.016c-0.117,0.393-0.176,0.821-0.176,1.285
		c0,0.553,0.123,0.986,0.369,1.3s0.594,0.471,1.043,0.471c0.291,0,0.532-0.042,0.724-0.126c0.192-0.085,0.355-0.176,0.488-0.274
		c0.134-0.099,0.25-0.189,0.349-0.274c0.098-0.084,0.201-0.126,0.309-0.126c0.099,0,0.189,0.047,0.274,0.141l0.379,0.464
		C249.603,63.557,249.373,63.778,249.152,63.954z"/>
	<path fill="#FFFFFF" d="M253.36,64.674c-0.394,0-0.757-0.066-1.089-0.2c-0.333-0.134-0.619-0.328-0.86-0.583
		c-0.241-0.256-0.43-0.569-0.565-0.941c-0.137-0.373-0.204-0.795-0.204-1.269c0-0.613,0.097-1.188,0.291-1.721
		c0.194-0.534,0.461-0.999,0.798-1.395c0.337-0.396,0.731-0.708,1.184-0.935c0.452-0.228,0.936-0.341,1.451-0.341
		c0.394,0,0.756,0.066,1.089,0.2c0.332,0.134,0.618,0.328,0.857,0.583c0.238,0.255,0.426,0.569,0.562,0.941s0.204,0.795,0.204,1.269
		c0,0.402-0.045,0.791-0.134,1.166s-0.213,0.725-0.372,1.05c-0.159,0.326-0.353,0.622-0.58,0.889
		c-0.227,0.268-0.478,0.496-0.751,0.686c-0.274,0.189-0.57,0.337-0.89,0.442C254.032,64.621,253.702,64.674,253.36,64.674z
		 M253.494,63.493c0.313,0,0.6-0.088,0.856-0.263c0.258-0.176,0.477-0.411,0.657-0.707c0.181-0.295,0.319-0.636,0.418-1.021
		c0.099-0.387,0.147-0.791,0.147-1.212c0-0.618-0.113-1.076-0.341-1.374c-0.227-0.297-0.562-0.446-1.008-0.446
		c-0.318,0-0.605,0.087-0.86,0.261c-0.256,0.173-0.473,0.405-0.65,0.695s-0.316,0.63-0.414,1.019
		c-0.099,0.389-0.147,0.796-0.147,1.223C252.152,62.885,252.6,63.493,253.494,63.493z"/>
	<path fill="#FFFFFF" d="M257.948,64.568l0.863-7.18h0.759c0.164,0,0.289,0.041,0.376,0.122c0.087,0.082,0.13,0.21,0.13,0.384
		l-0.062,1.011c0.337-0.538,0.703-0.942,1.1-1.212c0.396-0.269,0.813-0.403,1.254-0.403c0.459,0,0.81,0.155,1.054,0.467
		c0.243,0.312,0.374,0.76,0.394,1.346c0.347-0.623,0.732-1.081,1.159-1.374c0.426-0.292,0.883-0.438,1.37-0.438
		c0.608,0,1.051,0.236,1.327,0.709c0.276,0.474,0.363,1.144,0.26,2.01l-0.54,4.56h-1.482l0.533-4.56
		c0.033-0.253,0.046-0.472,0.039-0.657c-0.007-0.185-0.035-0.337-0.084-0.456c-0.05-0.12-0.122-0.208-0.218-0.264
		c-0.097-0.057-0.222-0.084-0.376-0.084c-0.188,0-0.374,0.049-0.559,0.147c-0.186,0.098-0.362,0.241-0.53,0.428
		c-0.169,0.188-0.326,0.417-0.471,0.689c-0.146,0.271-0.274,0.58-0.387,0.927l-0.45,3.829h-1.482l0.541-4.56
		c0.033-0.253,0.047-0.472,0.043-0.657c-0.005-0.185-0.031-0.337-0.078-0.456c-0.047-0.12-0.117-0.208-0.21-0.264
		c-0.094-0.057-0.218-0.084-0.373-0.084c-0.206,0-0.402,0.053-0.59,0.157c-0.188,0.105-0.365,0.257-0.534,0.453
		c-0.168,0.197-0.325,0.438-0.471,0.721s-0.273,0.603-0.386,0.959l-0.443,3.73H257.948z"/>
	<path fill="#FFFFFF" d="M268.999,63.697c0-0.136,0.024-0.264,0.074-0.383c0.049-0.119,0.118-0.224,0.207-0.312
		s0.191-0.159,0.309-0.211s0.246-0.077,0.387-0.077c0.136,0,0.264,0.025,0.383,0.077s0.223,0.122,0.31,0.211
		c0.086,0.089,0.155,0.193,0.207,0.312s0.077,0.247,0.077,0.383c0,0.141-0.025,0.27-0.077,0.387s-0.121,0.22-0.207,0.309
		c-0.087,0.089-0.19,0.158-0.31,0.207c-0.119,0.05-0.247,0.074-0.383,0.074c-0.141,0-0.27-0.024-0.387-0.074
		c-0.117-0.049-0.22-0.118-0.309-0.207s-0.158-0.191-0.207-0.309C269.023,63.967,268.999,63.838,268.999,63.697z"/>
	<path fill="#FFFFFF" d="M274.515,58.997c0.173-0.258,0.358-0.492,0.555-0.702c0.197-0.211,0.403-0.392,0.618-0.541
		c0.216-0.15,0.439-0.265,0.671-0.345c0.232-0.079,0.47-0.119,0.713-0.119c0.3,0,0.57,0.055,0.812,0.165s0.446,0.276,0.615,0.499
		s0.299,0.498,0.39,0.829c0.092,0.33,0.137,0.715,0.137,1.155c0,0.398-0.041,0.792-0.122,1.181
		c-0.082,0.389-0.198,0.757-0.349,1.106c-0.149,0.349-0.331,0.673-0.544,0.973s-0.448,0.559-0.706,0.776s-0.536,0.389-0.836,0.513
		s-0.611,0.187-0.935,0.187c-0.37,0-0.704-0.077-1.001-0.231c-0.298-0.155-0.545-0.366-0.741-0.633l-0.077,0.33
		c-0.047,0.15-0.105,0.259-0.176,0.327c-0.07,0.067-0.189,0.102-0.358,0.102h-0.808l1.257-10.397h1.476L274.515,58.997z
		 M274.029,62.932c0.169,0.211,0.367,0.359,0.594,0.446c0.228,0.086,0.453,0.13,0.678,0.13c0.226,0,0.437-0.047,0.633-0.141
		s0.378-0.223,0.545-0.387c0.166-0.164,0.313-0.357,0.442-0.579c0.129-0.223,0.238-0.461,0.33-0.714
		c0.091-0.253,0.16-0.516,0.207-0.79s0.07-0.545,0.07-0.812c0-0.529-0.091-0.926-0.274-1.19c-0.183-0.265-0.438-0.397-0.766-0.397
		c-0.206,0-0.417,0.068-0.632,0.204c-0.216,0.136-0.422,0.323-0.618,0.562c-0.197,0.239-0.381,0.522-0.552,0.851
		s-0.317,0.682-0.439,1.061L274.029,62.932z"/>
	<path fill="#FFFFFF" d="M281.926,59.25c0.183-0.379,0.381-0.705,0.594-0.977s0.436-0.484,0.668-0.64
		c0.231-0.154,0.471-0.245,0.716-0.273c0.246-0.028,0.493,0.012,0.741,0.119l-0.273,1.447c-0.595-0.239-1.116-0.163-1.563,0.229
		c-0.447,0.391-0.807,1.13-1.078,2.217l-0.38,3.196h-1.475l0.863-7.18h0.759c0.164,0,0.289,0.041,0.376,0.122
		c0.087,0.082,0.13,0.21,0.13,0.384L281.926,59.25z"/>
</g>
</svg>
