<?xml version="1.0" encoding="utf-8"?>
<!-- Generator: Adobe Illustrator 17.0.0, SVG Export Plug-In . SVG Version: 6.00 Build 0)  -->
<!DOCTYPE svg PUBLIC "-//W3C//DTD SVG 1.1//EN" "http://www.w3.org/Graphics/SVG/1.1/DTD/svg11.dtd">
<svg version="1.1" id="Camada_1" xmlns="http://www.w3.org/2000/svg" xmlns:xlink="http://www.w3.org/1999/xlink" x="0px" y="0px"
	 width="35.5px" height="35.5px" viewBox="0 0 35.5 35.5" enable-background="new 0 0 35.5 35.5" xml:space="preserve">
<g>
	<circle fill="#306232" cx="17.308" cy="17.692" r="16.308"/>
	<path fill="#F2F2F2" d="M13.145,26.433c-0.035,0-0.07,0-0.105,0c-0.024-0.015-0.047-0.037-0.074-0.043
		c-0.29-0.059-0.433-0.265-0.495-0.527c-0.039-0.167-0.045-0.346-0.045-0.519c-0.002-5.229-0.002-10.458-0.002-15.687
		c0-0.099-0.001-0.198,0.003-0.297c0.028-0.677,0.527-0.967,1.122-0.648c0.107,0.057,0.208,0.128,0.306,0.201
		c2.302,1.713,4.603,3.426,6.903,5.14c1.097,0.817,2.198,1.628,3.288,2.454c0.688,0.522,0.685,1.423,0.008,1.957
		c-0.183,0.144-0.371,0.281-0.557,0.42c-2.534,1.888-5.059,3.788-7.609,5.656C14.993,25.197,14.189,25.99,13.145,26.433z"/>
</g>
</svg>
