<?xml version="1.0" encoding="utf-8"?>
<!-- Generator: Adobe Illustrator 17.0.0, SVG Export Plug-In . SVG Version: 6.00 Build 0)  -->
<!DOCTYPE svg PUBLIC "-//W3C//DTD SVG 1.1//EN" "http://www.w3.org/Graphics/SVG/1.1/DTD/svg11.dtd">
<svg version="1.1" id="Camada_1" xmlns="http://www.w3.org/2000/svg" xmlns:xlink="http://www.w3.org/1999/xlink" x="0px" y="0px"
	 width="80px" height="80px" viewBox="0 0 80 80" enable-background="new 0 0 80 80" xml:space="preserve">
<g>
	<path fill="#306232" d="M45.715,68.231c6.986,0.612,13.768,2.001,20.04,5.303c0.801,0.422,1.686,0.731,2.279,1.48
		c-0.859,0.694-1.604,0.082-2.334-0.25c-1.604-0.73-3.132-1.628-4.921-2.208c0.98,1.971,1.736,3.945,0.624,6.077
		c-17.795,0-35.591,0-53.386,0c-0.05-0.22-0.1-0.439-0.15-0.659c8.478-7.499,18.889-9.436,29.821-9.87
		c0.9,1.102-0.652,1.906-0.293,3.155c3.126-0.096,6.336-0.133,9.41,1.018C46.66,70.837,45.03,69.846,45.715,68.231z"/>
</g>
<g>
	<path fill="#306232" d="M45.715,68.231c0.339,1.682,1.47,3.006,2.204,4.858c-3.948-1.151-7.77-1.779-11.862-0.938
		c0.613-1.522,1.122-2.785,1.63-4.048c1.86-4.888,2.085-9.926,1.096-14.995c-0.352-1.805,0.152-2.346,1.831-2.175
		c0.828-0.676,1.744-1.002,2.816-0.711c1.201-0.41,1.385-0.164,0.995,1.103C42.649,57.107,43.128,62.76,45.715,68.231z"/>
</g>
<g>
	<path fill="#306232" d="M57.698,40.379c-0.76,2.028-2.632,2.415-4.387,2.767c-3.074,0.617-5.602,1.985-7.335,4.644
		c-0.626,0.96-1.715,1.241-2.55,1.89c-1.607,1.242-3.383,0.623-5.117,0.464c-1.086-3.584-2.323-7.11-3.954-10.573
		c3.362,1.516,5.579,4.086,6.887,7.831c3.062-3.279,3.223-7.249,3.645-11.131c0.154-0.312,0.226-0.763,0.753-0.444
		c1.086,4.67,4.508,6.656,9.316,5.406C55.736,40.514,56.502,39.753,57.698,40.379z"/>
</g>
<g>
	<path fill="#306232" d="M32.276,32.605c0.594,1.567,1.22,3.123,1.77,4.706c0.309,0.889-0.04,1.207-1.023,1.128
		c-4.937-0.395-10.22-5.504-10.878-10.479c-0.202-1.525,0.414-1.745,1.64-1.377c0.95,0.285,1.89,0.605,2.834,0.909
		C29.466,28.134,31.324,29.868,32.276,32.605z"/>
</g>
<g>
	<path fill="#306232" d="M43.46,34.7c0.081,2.522-0.646,4.82-1.836,7.022c-0.599,1.108-1.017,1.005-1.773,0.119
		c-3.293-3.858-3.606-10.581-0.7-14.846c0.716-1.051,1.18-1.25,1.937-0.076C42.622,29.296,43.546,31.839,43.46,34.7z"/>
</g>
<g>
	<path fill="#306232" d="M60.037,30.152c1.847-1.597,3.715-3.113,6.137-3.845c1.418-0.429,1.791-0.168,1.569,1.292
		c-0.844,5.561-3.952,9.301-9.061,11.479c-0.804,0.872-1.433,0.747-1.841-0.354c-0.215-0.58-0.171-1.201-0.167-1.81
		C57.122,34.327,57.614,31.759,60.037,30.152z"/>
</g>
<g>
	<path fill="#306232" d="M52.222,34.937c-0.077,1.402,0.013,4.354-1.505,4.601c-1.737,0.283-2.81-2.391-3.584-4.207
		c-1.196-2.804-1.113-5.643-0.026-8.493c0.56-1.467,1.1-1.877,2.236-0.428C51.202,28.783,52.301,31.388,52.222,34.937z"/>
</g>
<g>
	<path fill="#306232" d="M55.357,31.597c-0.104-4.123,0.871-7.776,4.535-10.215c0.606-0.404,1.26-1.194,2.019-0.738
		c0.733,0.44,0.404,1.407,0.389,2.138c-0.056,2.639-1.254,4.853-2.721,6.952C58.077,32.164,56.968,32.654,55.357,31.597z"/>
</g>
<g>
	<path fill="#306232" d="M27.217,27.043c-2.588-2.008-4.205-4.575-4.474-7.89c-0.06-0.743-0.289-1.681,0.34-2.164
		c0.746-0.574,1.343,0.329,1.99,0.629c0.407,0.189,0.802,0.405,1.202,0.608c2.734,1.438,5.001,6.413,4.227,9.19
		c-0.264,0.947-0.758,1.275-1.674,0.868C28.192,28.001,27.624,27.626,27.217,27.043z"/>
</g>
<g>
	<path fill="#306232" d="M40.696,20.515c-0.444,1.63-1.053,3.174-2.005,4.598c-0.948,1.418-1.753,1.749-2.61-0.023
		c-1.992-3.33-1.089-8.847,1.824-11.17c0.806-0.643,1.609-0.923,2.447-0.057c0.165,0.218,0.286,0.459,0.371,0.718
		C41.188,16.561,41.798,18.543,40.696,20.515z"/>
</g>
<g>
	<path fill="#306232" d="M35.619,25.117c0.416,2.34,1.34,4.643,0.437,7.072c-0.259,0.697-0.233,1.718-0.93,1.959
		c-0.803,0.278-1.172-0.739-1.703-1.225c-0.278-0.254-0.504-0.566-0.754-0.851c-2.673-2.837-2.898-7.16-0.558-10.683
		C34.129,21.31,35.1,22.343,35.619,25.117z"/>
</g>
<g>
	<path fill="#306232" d="M55.866,21.877c-0.13,2.709-0.543,5.326-2.374,7.498c-3.161-2.051-3.899-8.958-0.758-12.583
		c0.509-0.588,0.877-0.405,1.313,0.003C55.775,18.087,56.158,19.861,55.866,21.877z"/>
</g>
<g>
	<path fill="#306232" d="M42.548,15.441c3.669,1.876,5.51,9.096,3.228,12.409c-0.668,0.97-1.025,0.236-1.4-0.117
		c-1.563-1.469-2.442-3.325-2.909-5.395c-0.156-1.52-0.525-3.027-0.267-4.572C41.357,16.819,41.743,16.01,42.548,15.441z"/>
</g>
<path fill="#234423" d="M61.403,78.632c0.089-2.301,0.003-4.561-1.81-6.731c3.391,0.178,5.58,2.589,8.441,3.113
	c1.587,0.765,2.895,1.859,4.297,3.619C68.437,78.632,64.92,78.632,61.403,78.632z"/>
<g>
	<path fill="#306232" d="M48.791,22.598c-2.438-3.062-2.337-6.377,0.28-9.238C51.4,16.304,51.294,19.777,48.791,22.598z"/>
</g>
<g>
	<path fill="#306232" d="M33.5,16.86c0.228,0.713,0.491,1.416,0.677,2.14c0.463,1.797-0.073,2.437-1.861,1.542
		c-1.9-1.27-2.966-3.119-3.646-5.238c-0.135-1.348,0.137-2.275,1.812-1.749c0.756-0.294,1.124,0.323,1.606,0.677
		C32.741,15.009,33.591,15.683,33.5,16.86z"/>
</g>
<g>
	<path fill="#306232" d="M66.844,11.8c0.35,3.556-1.383,6.165-5.067,7.63C60.942,15.935,63.085,12.707,66.844,11.8z"/>
</g>
<g>
	<path fill="#306232" d="M63.906,25.523c-0.881-4.177,0.219-6.706,3.614-8.563C68.729,20.367,67.437,23.519,63.906,25.523z"/>
</g>
<g>
	<path fill="#306232" d="M36.424,9.069c0.481,2.317,0.692,4.623-0.68,6.732c-0.341,0.524-0.479,1.627-1.602,1.003
		c-1.046-0.842-1.371-2.004-1.452-3.275c0.028-0.514,0.123-1.003,0.532-1.369c0.069-1.162,0.559-2.169,1.116-3.165
		C35.106,7.619,35.773,7.795,36.424,9.069z"/>
</g>
<g>
	<path fill="#306232" d="M54.527,16.792c-0.434-2.92-0.15-5.616,2.238-7.737c1.037-0.921,1.463-0.679,1.714,0.615
		c0.459,2.364-0.685,4.253-1.687,6.197C56.277,16.764,55.964,18.155,54.527,16.792z"/>
</g>
<g>
	<path fill="#306232" d="M54.523,40.328c-1.648-2.423-2.184-5.003-0.927-7.746c0.237-0.516,0.281-1.755,1.492-1.006
		c1.195,0.885,1.794,2.068,1.778,3.559c-0.15,1.204,0.148,2.45-0.242,3.617C56.304,39.707,56.061,40.926,54.523,40.328z"/>
</g>
<g>
	<path fill="#306232" d="M57.332,15.897c1.031-0.456,1.552-1.658,2.743-1.88c0.095,0.002,0.189,0.005,0.284,0.007
		c0.86,3.021-0.061,5.532-2.29,7.597c-0.429,0.397-1.008,1.458-1.783,0.269C55.598,19.711,55.44,17.625,57.332,15.897z"/>
</g>
<g>
	<path fill="#306232" d="M40.169,14.234c-0.338-1.906-1.014-3.779-0.551-5.761c0.344-0.74,0.688-1.479,1.116-2.398
		c1.053,0.761,1.626,1.609,1.798,2.741c0.349,0.267,0.156,0.727,0.372,1.042c0.478,1.951-0.034,3.775-0.715,5.577
		c-1.133,0.37-1.556-0.459-2.03-1.202L40.169,14.234z"/>
</g>
<g>
	<path fill="#306232" d="M46.45,8.245c1.627,2.556,1.609,5.118,0.199,7.731c-0.555,1.029-1.087,1.198-1.703,0.014
		C43.837,13.859,43.983,9.85,46.45,8.245z"/>
</g>
<g>
	<path fill="#306232" d="M51.028,7.023c2.187,2.063,2.951,4.244,2.309,6.86c-0.096,0.389-0.033,1.005-0.635,1.085
		c-0.529,0.07-0.807-0.395-1.081-0.743C49.932,12.072,49.836,9.752,51.028,7.023z"/>
</g>
<g>
	<path fill="#306232" d="M33.222,12.16c0.001,0.465,0.001,0.931,0.002,1.396c-0.418,0.428-0.49,1.413-1.48,0.919
		c-0.421-0.307-0.841-0.613-1.262-0.92c-1.317-3.897-1.317-3.897-0.717-5.879C32.037,8.308,31.882,10.81,33.222,12.16z"/>
</g>
<g>
	<path fill="#306232" d="M39.238,8.473c-0.331,0.559-0.663,1.119-1.009,1.703c-1.03-0.206-1.101-1.257-1.7-1.805
		c-0.063-1.815-0.298-3.666,1.144-5.249C39.483,4.535,39.24,6.541,39.238,8.473z"/>
</g>
<g>
	<path fill="#306232" d="M28.27,16.33c0.487,2.573,0.487,2.573-1.942,1.831c-0.991-1.634-2.557-3.081-1.763-5.401
		C26.483,13.314,27.465,14.728,28.27,16.33z"/>
</g>
<g>
	<path fill="#306232" d="M56.435,34.833c-0.449-1.086-0.898-2.172-1.346-3.258c0.091-0.011,0.181-0.003,0.269,0.022
		c2.133,1.024,2.769-1.345,4.222-1.863c0.153,0.139,0.305,0.279,0.458,0.418c-1.272,2.022-2.486,4.069-2.855,6.488
		C55.96,36.44,56.965,35.319,56.435,34.833z"/>
</g>
<g>
	<path fill="#306232" d="M54.404,10.421c-1.057-2.442-0.698-4.23,1.188-5.984C56.665,6.805,56.237,8.573,54.404,10.421z"/>
</g>
<g>
	<path fill="#306232" d="M42.903,9.857c-0.385-0.254-0.422-0.632-0.372-1.042c0.76-1.466-0.01-3.627,2.044-4.506
		C45.906,6.757,45.189,9.137,42.903,9.857z"/>
</g>
<g>
	<path fill="#306232" d="M48.903,10.303c-1.898-1.721-2.17-3.558-1.196-5.671C49.677,5.9,50.011,7.313,48.903,10.303z"/>
</g>
<g>
	<path fill="#306232" d="M60.359,14.024l-0.143,0.018l-0.141-0.025c-0.583-2.555,0.392-3.992,3.492-4.981
		c0.139,1.666-0.761,2.693-1.892,3.641C61.197,13.076,60.211,13.011,60.359,14.024z"/>
</g>
<g>
	<path fill="#306232" d="M40.158,14.232c0.843,0.12,1.08,1.262,2.03,1.202c0.121-0.053,0.241-0.051,0.36,0.007
		c-0.842,2.224-1.296,4.508-1.081,6.897c-0.257-0.608-0.514-1.215-0.77-1.823C40.875,18.39,40.443,16.318,40.158,14.232z"/>
</g>
<g>
	<path fill="#306232" d="M57.332,15.897c-0.709,1.935-1.326,3.886-1.045,5.993c-0.14,0.003-0.28-0.002-0.42-0.013
		c-0.487-1.737-0.975-3.473-1.819-5.083c0.16-0.001,0.319-0.002,0.479-0.002c1.228,0.85,1.453-0.756,2.264-0.925
		C56.972,15.877,57.152,15.887,57.332,15.897z"/>
</g>
<g>
	<path fill="#306232" d="M38.31,50.143c1.745,0.28,3.419-0.226,5.117-0.464c0.001,0.181,0.002,0.361,0.004,0.542
		c-0.876,0.486-1.785,0.838-2.816,0.711C40.011,50.189,38.86,51.043,38.31,50.143z"/>
</g>
<g>
	<path fill="#306232" d="M37.749,48.263c0,0,2.409,9.093,0.61,17.824h6.455c0,0-3.956-14.622,3.53-20.842L37.749,48.263z"/>
</g>
<path fill="#F7F3EF" d="M41.116,61.58c0.088-0.395,0.251-0.917,0.679-0.925c0.298-0.006,0.565,0.5,0.6,0.908
	c0.032,0.371-0.168,0.632-0.546,0.672C41.421,62.278,41.184,62.042,41.116,61.58z"/>
<g>
	<g>
		<line fill="#306232" x1="41.777" y1="54.315" x2="41.777" y2="60.323"/>
		<path fill="#FFFFFF" d="M41.777,54.315c0,0,0.08,0.375,0.14,0.939c0.059,0.563,0.113,1.314,0.11,2.065
			c0.003,0.751-0.049,1.502-0.109,2.065c-0.06,0.563-0.141,0.939-0.141,0.939s-0.08-0.375-0.141-0.939
			c-0.06-0.563-0.112-1.314-0.109-2.065c-0.003-0.751,0.051-1.502,0.11-2.065C41.697,54.69,41.777,54.315,41.777,54.315z"/>
	</g>
	<g>
		<line fill="#306232" x1="41.777" y1="55.413" x2="43.892" y2="53.541"/>
		<path fill="#FFFFFF" d="M41.777,55.413c0,0,0.022-0.042,0.059-0.116c0.05-0.06,0.077-0.196,0.188-0.27
			c0.198-0.176,0.463-0.41,0.727-0.644s0.529-0.468,0.727-0.644c0.089-0.099,0.227-0.11,0.294-0.151
			c0.076-0.031,0.119-0.048,0.119-0.048s-0.023,0.041-0.062,0.113c-0.049,0.061-0.076,0.197-0.185,0.274
			c-0.198,0.176-0.463,0.41-0.727,0.644c-0.264,0.234-0.529,0.468-0.727,0.644c-0.087,0.102-0.225,0.112-0.291,0.154
			C41.821,55.397,41.777,55.413,41.777,55.413z"/>
	</g>
	<g>
		<line fill="#306232" x1="41.777" y1="55.89" x2="39.712" y2="53.923"/>
		<path fill="#FFFFFF" d="M41.777,55.89c0,0-0.044-0.018-0.122-0.05c-0.065-0.045-0.203-0.061-0.287-0.167
			c-0.194-0.184-0.452-0.43-0.71-0.676c-0.258-0.246-0.516-0.492-0.71-0.676c-0.108-0.081-0.13-0.219-0.177-0.282
			c-0.038-0.074-0.059-0.116-0.059-0.116s0.043,0.019,0.118,0.053c0.066,0.044,0.204,0.06,0.29,0.163
			c0.194,0.184,0.452,0.43,0.71,0.676c0.258,0.246,0.516,0.492,0.71,0.676c0.11,0.079,0.133,0.216,0.181,0.279
			C41.756,55.847,41.777,55.89,41.777,55.89z"/>
	</g>
	<g>
		<line fill="#306232" x1="41.777" y1="56.066" x2="43.892" y2="54.169"/>
		<path fill="#FFFFFF" d="M41.777,56.066c0,0,0.021-0.043,0.059-0.117c0.05-0.061,0.077-0.197,0.188-0.272
			c0.198-0.178,0.463-0.415,0.727-0.652c0.264-0.237,0.529-0.474,0.727-0.652c0.089-0.101,0.228-0.112,0.294-0.154
			c0.076-0.032,0.12-0.05,0.12-0.05s-0.023,0.041-0.062,0.114c-0.049,0.062-0.075,0.199-0.185,0.276
			c-0.198,0.178-0.463,0.415-0.727,0.652c-0.264,0.237-0.529,0.474-0.727,0.652c-0.087,0.103-0.225,0.115-0.291,0.157
			C41.821,56.049,41.777,56.066,41.777,56.066z"/>
	</g>
	<g>
		<line fill="#306232" x1="41.777" y1="56.523" x2="39.712" y2="54.66"/>
		<path fill="#FFFFFF" d="M41.777,56.523c0,0-0.044-0.016-0.121-0.045c-0.065-0.042-0.201-0.053-0.286-0.154
			c-0.194-0.175-0.452-0.407-0.71-0.64s-0.516-0.466-0.71-0.64c-0.107-0.076-0.131-0.211-0.179-0.272
			c-0.038-0.071-0.06-0.112-0.06-0.112s0.043,0.017,0.117,0.048c0.065,0.041,0.202,0.051,0.289,0.15
			c0.194,0.175,0.452,0.407,0.71,0.64s0.516,0.466,0.71,0.64c0.109,0.074,0.134,0.208,0.182,0.268
			C41.756,56.481,41.777,56.523,41.777,56.523z"/>
	</g>
	<g>
		<line fill="#306232" x1="41.777" y1="57.366" x2="43.892" y2="55.591"/>
		<path fill="#FFFFFF" d="M41.777,57.366c0,0,0.022-0.041,0.06-0.113c0.05-0.058,0.079-0.191,0.19-0.26
			c0.198-0.166,0.463-0.388,0.727-0.61s0.529-0.444,0.727-0.61c0.089-0.095,0.226-0.1,0.292-0.138
			c0.075-0.028,0.119-0.043,0.119-0.043s-0.023,0.04-0.063,0.109c-0.049,0.059-0.078,0.193-0.187,0.264
			c-0.198,0.166-0.463,0.388-0.727,0.61c-0.264,0.222-0.529,0.444-0.727,0.61c-0.087,0.097-0.224,0.103-0.289,0.142
			C41.821,57.351,41.777,57.366,41.777,57.366z"/>
	</g>
	<g>
		<line fill="#306232" x1="41.777" y1="57.085" x2="39.712" y2="55.117"/>
		<path fill="#FFFFFF" d="M41.777,57.085c0,0-0.044-0.018-0.122-0.05c-0.065-0.045-0.203-0.061-0.287-0.167
			c-0.194-0.184-0.452-0.43-0.71-0.676c-0.258-0.246-0.516-0.492-0.71-0.676c-0.108-0.081-0.13-0.219-0.177-0.282
			c-0.038-0.074-0.059-0.116-0.059-0.116s0.043,0.019,0.118,0.053c0.066,0.044,0.204,0.06,0.29,0.163
			c0.194,0.184,0.452,0.43,0.71,0.676c0.258,0.246,0.516,0.492,0.71,0.676c0.11,0.079,0.133,0.216,0.181,0.279
			C41.756,57.041,41.777,57.085,41.777,57.085z"/>
	</g>
	<g>
		<line fill="#306232" x1="41.777" y1="57.822" x2="39.712" y2="55.89"/>
		<path fill="#FFFFFF" d="M41.777,57.822c0,0-0.044-0.018-0.121-0.048c-0.065-0.044-0.202-0.058-0.287-0.163
			c-0.194-0.181-0.452-0.423-0.71-0.664s-0.516-0.483-0.71-0.664c-0.107-0.079-0.131-0.216-0.178-0.279
			c-0.038-0.073-0.059-0.114-0.059-0.114s0.043,0.019,0.118,0.052c0.066,0.043,0.204,0.057,0.29,0.159
			c0.194,0.181,0.452,0.423,0.71,0.664c0.258,0.242,0.516,0.483,0.71,0.664c0.109,0.077,0.133,0.214,0.181,0.275
			C41.756,57.78,41.777,57.822,41.777,57.822z"/>
	</g>
	<g>
		<line fill="#306232" x1="41.777" y1="58.104" x2="43.892" y2="56.101"/>
		<path fill="#FFFFFF" d="M41.777,58.104c0,0,0.021-0.044,0.058-0.121c0.05-0.064,0.075-0.202,0.187-0.283
			c0.198-0.188,0.463-0.438,0.727-0.688c0.264-0.25,0.529-0.501,0.727-0.688c0.088-0.105,0.229-0.122,0.296-0.167
			c0.077-0.035,0.12-0.055,0.12-0.055s-0.022,0.043-0.061,0.117c-0.049,0.064-0.073,0.204-0.183,0.286
			c-0.198,0.188-0.463,0.438-0.727,0.688c-0.264,0.25-0.529,0.501-0.727,0.688c-0.086,0.107-0.227,0.125-0.293,0.171
			C41.822,58.085,41.777,58.104,41.777,58.104z"/>
	</g>
	<g>
		<line fill="#306232" x1="41.777" y1="58.894" x2="43.892" y2="56.856"/>
		<path fill="#FFFFFF" d="M41.777,58.894c0,0,0.021-0.044,0.058-0.122c0.049-0.064,0.074-0.204,0.186-0.286
			c0.198-0.191,0.463-0.446,0.727-0.701s0.529-0.51,0.727-0.701c0.088-0.107,0.229-0.126,0.297-0.172
			c0.077-0.036,0.121-0.057,0.121-0.057s-0.022,0.043-0.061,0.119c-0.049,0.065-0.073,0.206-0.183,0.29
			c-0.198,0.191-0.463,0.446-0.727,0.701c-0.264,0.255-0.529,0.51-0.727,0.701c-0.086,0.109-0.227,0.128-0.293,0.175
			C41.822,58.875,41.777,58.894,41.777,58.894z"/>
	</g>
	<g>
		<line fill="#306232" x1="41.777" y1="59.298" x2="39.712" y2="57.366"/>
		<path fill="#FFFFFF" d="M41.777,59.298c0,0-0.044-0.018-0.121-0.048c-0.065-0.044-0.202-0.058-0.287-0.163
			c-0.194-0.181-0.452-0.423-0.71-0.664c-0.258-0.242-0.516-0.483-0.71-0.664c-0.107-0.079-0.131-0.216-0.178-0.279
			c-0.038-0.073-0.059-0.114-0.059-0.114s0.043,0.019,0.118,0.052c0.066,0.043,0.204,0.057,0.29,0.159
			c0.194,0.181,0.452,0.423,0.71,0.664c0.258,0.242,0.516,0.483,0.71,0.664c0.109,0.077,0.133,0.214,0.181,0.275
			C41.756,59.255,41.777,59.298,41.777,59.298z"/>
	</g>
	<g>
		<line fill="#306232" x1="41.777" y1="56.771" x2="43.892" y2="54.996"/>
		<path fill="#FFFFFF" d="M41.777,56.771c0,0,0.022-0.041,0.06-0.113c0.05-0.058,0.079-0.191,0.19-0.26
			c0.198-0.166,0.463-0.388,0.727-0.61s0.529-0.444,0.727-0.61c0.089-0.095,0.226-0.1,0.292-0.138
			c0.075-0.028,0.119-0.043,0.119-0.043s-0.023,0.04-0.063,0.109c-0.049,0.059-0.078,0.193-0.187,0.264
			c-0.198,0.166-0.463,0.388-0.727,0.61c-0.264,0.222-0.529,0.444-0.727,0.61c-0.087,0.097-0.224,0.103-0.289,0.142
			C41.821,56.756,41.777,56.771,41.777,56.771z"/>
	</g>
	<g>
		<line fill="#306232" x1="41.777" y1="58.63" x2="39.712" y2="56.698"/>
		<path fill="#FFFFFF" d="M41.777,58.63c0,0-0.044-0.018-0.121-0.048c-0.065-0.044-0.202-0.058-0.287-0.163
			c-0.194-0.181-0.452-0.423-0.71-0.664c-0.258-0.242-0.516-0.483-0.71-0.664c-0.107-0.079-0.131-0.216-0.178-0.279
			c-0.038-0.073-0.059-0.114-0.059-0.114s0.043,0.019,0.118,0.052c0.066,0.043,0.204,0.057,0.29,0.159
			c0.194,0.181,0.452,0.423,0.71,0.664c0.258,0.242,0.516,0.483,0.71,0.664c0.109,0.077,0.133,0.214,0.181,0.275
			C41.756,58.587,41.777,58.63,41.777,58.63z"/>
	</g>
</g>
</svg>
