<?xml version="1.0" encoding="utf-8"?>
<!-- Generator: Adobe Illustrator 17.0.0, SVG Export Plug-In . SVG Version: 6.00 Build 0)  -->
<!DOCTYPE svg PUBLIC "-//W3C//DTD SVG 1.1//EN" "http://www.w3.org/Graphics/SVG/1.1/DTD/svg11.dtd">
<svg version="1.1" id="Camada_1" xmlns="http://www.w3.org/2000/svg" xmlns:xlink="http://www.w3.org/1999/xlink" x="0px" y="0px"
	 width="200px" height="25px" viewBox="0 0 200 25" enable-background="new 0 0 200 25" xml:space="preserve">
<g>
	<path fill="#FFFFFF" d="M14.001,11.885c0,0.797-0.086,1.557-0.259,2.282C13.57,14.891,13.321,15.56,13,16.174
		c-0.322,0.615-0.712,1.169-1.171,1.664c-0.458,0.495-0.97,0.917-1.534,1.266s-1.176,0.618-1.833,0.807
		C7.804,20.1,7.11,20.194,6.38,20.194c-0.897,0-1.706-0.159-2.426-0.478c-0.721-0.319-1.332-0.758-1.833-1.32
		c-0.502-0.561-0.887-1.227-1.156-1.997c-0.268-0.771-0.403-1.611-0.403-2.521c0-0.803,0.088-1.568,0.264-2.292
		c0.176-0.723,0.424-1.395,0.743-2.012S2.275,8.398,2.733,7.9c0.459-0.498,0.97-0.922,1.535-1.27
		c0.564-0.349,1.176-0.618,1.833-0.807c0.658-0.19,1.352-0.284,2.082-0.284c0.897,0,1.703,0.159,2.421,0.478
		c0.718,0.319,1.328,0.763,1.833,1.33c0.504,0.568,0.892,1.239,1.16,2.012C13.866,10.134,14.001,10.976,14.001,11.885z
		 M11.689,11.935c0-0.684-0.086-1.304-0.259-1.858c-0.173-0.555-0.422-1.03-0.748-1.425c-0.325-0.396-0.722-0.699-1.19-0.912
		C9.024,7.528,8.498,7.422,7.914,7.422c-0.751,0-1.436,0.152-2.057,0.453C5.236,8.178,4.704,8.607,4.263,9.166
		c-0.442,0.558-0.786,1.23-1.031,2.017c-0.246,0.787-0.369,1.662-0.369,2.625c0,0.684,0.087,1.304,0.259,1.857
		c0.173,0.555,0.42,1.03,0.742,1.425c0.322,0.395,0.716,0.699,1.18,0.911c0.465,0.212,0.993,0.319,1.584,0.319
		c0.757,0,1.446-0.151,2.067-0.453c0.621-0.302,1.154-0.731,1.599-1.285c0.445-0.555,0.789-1.226,1.031-2.012
		C11.569,13.783,11.689,12.905,11.689,11.935z"/>
	<path fill="#FFFFFF" d="M26.265,20.045h-1.733c-0.199,0-0.353-0.048-0.463-0.144c-0.11-0.096-0.188-0.225-0.234-0.383l-0.678-3.218
		h-5.589l-1.475,3.218c-0.066,0.139-0.171,0.262-0.314,0.368c-0.143,0.107-0.307,0.16-0.493,0.16h-1.754l6.984-14.347h2.282
		L26.265,20.045z M22.818,14.685l-1.135-5.37c-0.034-0.206-0.075-0.442-0.125-0.708c-0.049-0.265-0.098-0.558-0.144-0.876
		c-0.114,0.319-0.226,0.613-0.339,0.882c-0.113,0.268-0.216,0.509-0.309,0.722l-2.451,5.35H22.818z"/>
	<path fill="#FFFFFF" d="M33.339,18.272c0.418,0,0.789-0.033,1.111-0.1c0.322-0.066,0.603-0.151,0.842-0.254
		c0.238-0.103,0.443-0.215,0.612-0.334c0.169-0.12,0.317-0.231,0.443-0.334s0.236-0.187,0.329-0.254
		c0.092-0.066,0.182-0.1,0.268-0.1c0.073,0,0.133,0.015,0.18,0.045c0.046,0.03,0.083,0.062,0.109,0.095l0.786,0.987
		c-0.617,0.691-1.344,1.227-2.182,1.609c-0.837,0.382-1.797,0.573-2.879,0.573c-0.87,0-1.647-0.156-2.331-0.469
		c-0.684-0.312-1.262-0.743-1.733-1.295c-0.472-0.551-0.832-1.209-1.082-1.973c-0.249-0.764-0.373-1.598-0.373-2.501
		c0-1.241,0.195-2.379,0.588-3.412c0.392-1.033,0.929-1.922,1.613-2.665c0.684-0.744,1.486-1.322,2.406-1.733
		c0.919-0.412,1.908-0.618,2.964-0.618c0.517,0,0.988,0.046,1.409,0.139c0.422,0.093,0.803,0.224,1.146,0.393
		c0.342,0.169,0.653,0.374,0.932,0.613c0.279,0.239,0.535,0.504,0.767,0.797l-0.767,0.936C38.44,8.491,38.37,8.555,38.29,8.607
		c-0.079,0.054-0.179,0.08-0.298,0.08c-0.087,0-0.173-0.03-0.259-0.09c-0.086-0.06-0.182-0.135-0.289-0.224
		c-0.106-0.09-0.231-0.186-0.374-0.289c-0.143-0.103-0.314-0.199-0.513-0.289c-0.199-0.09-0.433-0.165-0.702-0.225
		c-0.269-0.059-0.586-0.089-0.952-0.089c-0.731,0-1.412,0.148-2.042,0.443c-0.631,0.295-1.177,0.715-1.639,1.26
		c-0.462,0.545-0.825,1.206-1.091,1.982c-0.265,0.778-0.398,1.647-0.398,2.611c0,0.697,0.089,1.325,0.269,1.883
		c0.179,0.558,0.428,1.03,0.747,1.415c0.319,0.385,0.699,0.681,1.141,0.887S32.814,18.272,33.339,18.272z"/>
	<path fill="#FFFFFF" d="M45.503,5.698c0.797,0,1.483,0.085,2.058,0.255c0.574,0.169,1.048,0.407,1.42,0.712
		c0.371,0.306,0.645,0.673,0.821,1.101c0.176,0.428,0.264,0.905,0.264,1.429c0,0.565-0.081,1.095-0.244,1.589
		c-0.163,0.495-0.397,0.942-0.702,1.34c-0.306,0.399-0.679,0.742-1.121,1.031c-0.442,0.289-0.938,0.51-1.489,0.662
		c0.259,0.166,0.469,0.402,0.628,0.707l2.81,5.52h-2.003c-0.399,0-0.664-0.156-0.797-0.469l-2.381-4.882
		c-0.087-0.165-0.188-0.285-0.304-0.358c-0.116-0.073-0.294-0.109-0.533-0.109h-1.156l-0.717,5.818h-2.232l1.754-14.347H45.503z
		 M44.617,12.603c0.538,0,1.009-0.078,1.414-0.234c0.405-0.156,0.741-0.37,1.007-0.642c0.265-0.272,0.465-0.595,0.598-0.966
		c0.133-0.372,0.199-0.774,0.199-1.206c0-0.671-0.209-1.187-0.628-1.549c-0.418-0.362-1.052-0.543-1.903-0.543h-1.703l-0.628,5.141
		H44.617z"/>
	<path fill="#FFFFFF" d="M55.417,7.522l-0.538,4.414h4.792l-0.229,1.753h-4.782l-0.558,4.533h6.027l-0.229,1.823h-8.279
		l1.763-14.347h8.269l-0.229,1.823H55.417z"/>
	<path fill="#FFFFFF" d="M73.459,20.045h-1.733c-0.199,0-0.353-0.048-0.463-0.144c-0.11-0.096-0.188-0.225-0.234-0.383l-0.678-3.218
		h-5.589l-1.475,3.218c-0.066,0.139-0.171,0.262-0.314,0.368c-0.143,0.107-0.307,0.16-0.493,0.16h-1.754L67.71,5.698h2.282
		L73.459,20.045z M70.011,14.685l-1.135-5.37c-0.034-0.206-0.075-0.442-0.125-0.708c-0.049-0.265-0.098-0.558-0.144-0.876
		c-0.114,0.319-0.226,0.613-0.339,0.882c-0.113,0.268-0.216,0.509-0.309,0.722l-2.451,5.35H70.011z"/>
	<path fill="#FFFFFF" d="M87.865,5.698l-1.773,14.347h-1.136c-0.179,0-0.325-0.032-0.438-0.095c-0.114-0.062-0.22-0.168-0.319-0.314
		L78.35,9.315c-0.013,0.152-0.024,0.298-0.035,0.433c-0.01,0.136-0.021,0.264-0.035,0.383l-1.215,9.913h-1.973l1.763-14.347h1.166
		c0.199,0,0.344,0.02,0.433,0.06c0.09,0.04,0.181,0.143,0.274,0.309l5.868,10.321c0.019-0.365,0.049-0.691,0.089-0.976l1.196-9.714
		H87.865z"/>
	<path fill="#FFFFFF" d="M102.779,11.885c0,0.797-0.086,1.557-0.259,2.282c-0.173,0.724-0.421,1.393-0.743,2.007
		s-0.712,1.169-1.171,1.664c-0.458,0.495-0.97,0.917-1.534,1.266c-0.564,0.349-1.176,0.618-1.833,0.807
		c-0.658,0.19-1.352,0.284-2.082,0.284c-0.897,0-1.706-0.159-2.426-0.478c-0.721-0.319-1.332-0.758-1.833-1.32
		c-0.502-0.561-0.887-1.227-1.156-1.997c-0.268-0.771-0.403-1.611-0.403-2.521c0-0.803,0.088-1.568,0.264-2.292
		c0.176-0.723,0.424-1.395,0.743-2.012c0.319-0.618,0.707-1.176,1.165-1.673c0.459-0.498,0.97-0.922,1.535-1.27
		c0.564-0.349,1.176-0.618,1.833-0.807c0.658-0.19,1.352-0.284,2.082-0.284c0.897,0,1.703,0.159,2.421,0.478
		c0.718,0.319,1.328,0.763,1.833,1.33c0.504,0.568,0.892,1.239,1.16,2.012C102.644,10.134,102.779,10.976,102.779,11.885z
		 M100.467,11.935c0-0.684-0.086-1.304-0.259-1.858s-0.422-1.03-0.748-1.425c-0.325-0.396-0.722-0.699-1.19-0.912
		c-0.469-0.212-0.995-0.319-1.579-0.319c-0.751,0-1.436,0.152-2.057,0.453c-0.621,0.302-1.153,0.732-1.594,1.291
		c-0.442,0.558-0.786,1.23-1.031,2.017c-0.246,0.787-0.369,1.662-0.369,2.625c0,0.684,0.087,1.304,0.259,1.857
		c0.173,0.555,0.42,1.03,0.742,1.425c0.322,0.395,0.716,0.699,1.18,0.911c0.465,0.212,0.993,0.319,1.584,0.319
		c0.757,0,1.446-0.151,2.067-0.453s1.154-0.731,1.599-1.285c0.445-0.555,0.789-1.226,1.031-2.012
		C100.346,13.783,100.467,12.905,100.467,11.935z"/>
	<path fill="#FFFFFF" d="M114.674,5.698c0.784,0,1.463,0.095,2.037,0.284c0.575,0.19,1.049,0.456,1.425,0.798
		c0.375,0.342,0.653,0.75,0.832,1.225c0.179,0.475,0.269,0.998,0.269,1.569c0,0.764-0.122,1.467-0.363,2.107
		c-0.243,0.641-0.603,1.194-1.082,1.659c-0.478,0.465-1.071,0.829-1.778,1.091c-0.708,0.262-1.526,0.393-2.456,0.393h-1.933
		l-0.637,5.221h-2.232l1.754-14.347H114.674z M113.777,13.051c0.532,0,0.998-0.081,1.4-0.244c0.401-0.163,0.735-0.388,1.001-0.678
		c0.265-0.289,0.465-0.634,0.598-1.036c0.133-0.401,0.199-0.842,0.199-1.32c0-0.704-0.206-1.266-0.618-1.684
		c-0.412-0.418-1.046-0.628-1.903-0.628h-1.923l-0.688,5.589H113.777z"/>
	<path fill="#FFFFFF" d="M128.054,18.162l-0.229,1.883h-7.672l1.763-14.347h2.242l-1.535,12.464H128.054z"/>
	<path fill="#FFFFFF" d="M140.846,20.045h-1.733c-0.199,0-0.353-0.048-0.463-0.144c-0.11-0.096-0.188-0.225-0.234-0.383
		l-0.678-3.218h-5.589l-1.475,3.218c-0.066,0.139-0.171,0.262-0.314,0.368c-0.143,0.107-0.307,0.16-0.493,0.16h-1.754l6.984-14.347
		h2.282L140.846,20.045z M137.399,14.685l-1.135-5.37c-0.034-0.206-0.075-0.442-0.125-0.708c-0.049-0.265-0.098-0.558-0.144-0.876
		c-0.114,0.319-0.226,0.613-0.339,0.882c-0.113,0.268-0.216,0.509-0.309,0.722l-2.451,5.35H137.399z"/>
	<path fill="#FFFFFF" d="M147.182,14.396l-0.707,5.649h-2.242l0.708-5.649l-3.756-8.698h1.993c0.192,0,0.344,0.049,0.453,0.144
		c0.109,0.096,0.191,0.221,0.244,0.374l2.102,5.311c0.146,0.425,0.259,0.84,0.338,1.245c0.093-0.199,0.195-0.401,0.304-0.603
		c0.109-0.202,0.231-0.417,0.364-0.642l3.427-5.311c0.079-0.133,0.184-0.252,0.314-0.358c0.13-0.106,0.29-0.16,0.483-0.16h1.863
		L147.182,14.396z"/>
</g>
<path fill="#FFFFFF" d="M199.917,1.692c0,7.227,0,14.453,0,21.68c-0.567,1.066-1.352,1.182-2.208,0.326
	c-2.278-2.278-4.556-4.557-6.835-6.835c-0.089-0.089-0.182-0.174-0.33-0.315c0,0.274,0,0.454,0,0.635
	c-0.001,1.538-0.001,3.076-0.002,4.613c-0.002,1.459-0.999,2.452-2.465,2.454c-1.355,0.001-2.709,0-4.064,0
	c-6.371,0-12.742,0-19.113,0c-1.229,0-2.058-0.614-2.416-1.783c-0.013-0.043-0.045-0.081-0.068-0.121c0-6.519,0-13.037,0-19.556
	c0.023-0.055,0.053-0.109,0.068-0.167c0.304-1.129,1.182-1.81,2.357-1.81c7.76-0.002,15.52-0.002,23.28,0
	c1.417,0,2.42,1.006,2.423,2.42c0.003,1.623,0.001,3.246,0.002,4.868c0,0.113,0.011,0.225,0.017,0.338
	c0.034,0.019,0.068,0.038,0.102,0.057c0.079-0.108,0.145-0.229,0.239-0.323c2.293-2.297,4.587-4.593,6.887-6.883
	c0.16-0.16,0.352-0.313,0.558-0.397C198.973,0.64,199.508,0.925,199.917,1.692z"/>
</svg>
