<?xml version="1.0" encoding="utf-8"?>
<!-- Generator: Adobe Illustrator 17.0.0, SVG Export Plug-In . SVG Version: 6.00 Build 0)  -->
<!DOCTYPE svg PUBLIC "-//W3C//DTD SVG 1.1//EN" "http://www.w3.org/Graphics/SVG/1.1/DTD/svg11.dtd">
<svg version="1.1" id="Camada_1" xmlns="http://www.w3.org/2000/svg" xmlns:xlink="http://www.w3.org/1999/xlink" x="0px" y="0px"
	 width="88.5px" height="88.5px" viewBox="0 0 88.5 88.5" enable-background="new 0 0 88.5 88.5" xml:space="preserve">
<g>
	<path fill="#F2F2F2" d="M33.676,64.511c-0.085,0-0.171,0-0.256,0c-0.06-0.036-0.116-0.091-0.18-0.105
		c-0.709-0.145-1.059-0.647-1.21-1.289c-0.096-0.409-0.111-0.844-0.111-1.268c-0.005-12.777-0.004-25.554-0.004-38.33
		c0-0.242-0.002-0.484,0.008-0.726c0.068-1.655,1.287-2.362,2.741-1.583c0.262,0.14,0.508,0.313,0.747,0.491
		c5.624,4.185,11.246,8.372,16.868,12.559c2.68,1.996,5.37,3.979,8.034,5.997c1.682,1.275,1.673,3.477,0.019,4.782
		c-0.446,0.352-0.906,0.687-1.362,1.027c-6.193,4.613-12.362,9.257-18.591,13.819C38.192,61.489,36.226,63.429,33.676,64.511z"/>
	<circle fill="none" stroke="#FFFFFF" stroke-width="4" stroke-miterlimit="10" cx="43.847" cy="43.153" r="39.847"/>
</g>
</svg>
